<?xml version="1.0" encoding="UTF-8"?>
<svg version="1.1" xmlns="http://www.w3.org/2000/svg" width="3333" height="3333">
<path d="M0 0 C11.40966793 0.00237749 22.81933446 0.00257239 34.22900257 0.00148458 C35.47611467 0.00137 35.47611467 0.00137 36.74842095 0.00125311 C40.1292426 0.00094142 43.51006425 0.00062298 46.8908859 0.00029335 C78.15871786 -0.00271826 109.42654689 -0.00006959 140.6943784 0.00539024 C168.04776401 0.01013042 195.40114495 0.00970557 222.75453052 0.00492925 C253.99077496 -0.00050778 285.22701684 -0.00250407 316.46326169 0.00054152 C319.83546218 0.0008619 323.20766267 0.00117476 326.57986316 0.00148458 C327.82398569 0.0016032 327.82398569 0.0016032 329.09324202 0.00172421 C340.45242601 0.00275712 351.81160828 0.00191314 363.17079204 -0.00050216 C429.9719726 -0.01448583 496.76976889 0.09239561 563.56943692 0.57306015 C565.75766042 0.58871593 567.94588559 0.60411077 570.13411161 0.61940936 C658.79836629 1.23997939 747.34280117 3.35030744 835.88612232 8.08036871 C851.31703248 8.89751732 866.74631467 9.51180122 882.19035205 10.0187232 C969.21837228 12.89558296 1054.63070611 26.80696182 1302.82972583 133.61381597 C1305.06564379 135.25352422 1307.31462893 136.87429753 1309.56458911 138.49467535 C1323.21615393 148.37900506 1336.37187615 158.82181192 1348.80287036 170.21342535 C1350.70479429 171.95273124 1352.63763018 173.64293166 1354.59193286 175.32280035 C1367.34290604 186.45092239 1380.09232248 198.11842245 1391.07240161 211.0220191 C1392.95334193 213.19171784 1394.89358025 215.29995724 1396.84730396 217.40409917 C1402.45853533 223.45248239 1407.74784965 229.69170215 1412.90443286 236.13530035 C1413.82683661 237.26613991 1414.75005482 238.39631549 1415.67396411 239.52592535 C1432.48208961 260.16993011 1447.3289334 282.25251839 1460.90443286 305.13530035 C1461.37316821 305.9217896 1461.84190357 306.70827886 1462.32484302 307.51860113 C1505.39733806 380.15150901 1530.20043886 464.19137024 1559.02943286 661.07280035 C1559.10516528 662.37797613 1559.18089771 663.68315191 1559.25892505 665.02787847 C1559.72120815 673.52561328 1559.99362873 682.02453485 1560.22250232 690.5314948 C1560.73151728 709.44396838 1561.59391377 728.32528659 1562.5751482 747.21864385 C1563.03909236 756.17060715 1563.48136782 765.12366667 1563.92396411 774.0767066 C1563.9677444 774.96197341 1564.01152469 775.84724023 1564.05663165 776.75933332 C1565.2310765 800.54553319 1566.23719757 824.32891332 1566.90443286 848.13530035 C1566.92480358 848.85766378 1566.94517429 849.58002721 1566.96616229 850.32428045 C1568.39299181 901.11164799 1569.08517987 951.90388761 1569.4395348 1002.70909699 C1569.45492617 1004.90014817 1569.47062261 1007.09119695 1569.48642129 1009.28224523 C1569.96671726 1075.90786909 1570.05389015 1142.53198306 1570.03973321 1209.15909181 C1570.03735629 1220.57403872 1570.0371606 1231.98898423 1570.03824863 1243.40393133 C1570.03832501 1244.23555326 1570.0384014 1245.06717519 1570.0384801 1245.92399779 C1570.03879179 1249.30564199 1570.03911022 1252.6872862 1570.03943986 1256.0689304 C1570.04245185 1287.34795191 1570.03980217 1318.62697049 1570.03434297 1349.90599154 C1570.02960274 1377.2726312 1570.03002759 1404.63926619 1570.03480396 1432.00590581 C1570.04024031 1463.25312037 1570.04223763 1494.50033237 1570.03919169 1525.74754734 C1570.03887131 1529.12058801 1570.03855844 1532.49362869 1570.03824863 1535.86666936 C1570.03816955 1536.69629831 1570.03809047 1537.52592726 1570.038009 1538.38069647 C1570.03697585 1549.74550779 1570.0378206 1561.11031739 1570.04023536 1572.47512848 C1570.05416813 1639.08105019 1569.94997365 1705.6835928 1569.46667306 1772.2879835 C1569.45102114 1774.45697797 1569.43562571 1776.62597409 1569.42032385 1778.79497106 C1568.79271052 1867.64947619 1566.69961343 1956.38396663 1561.9593645 2045.11723394 C1561.14222922 2060.54742643 1560.52808118 2075.97597449 1560.02128467 2091.41929693 C1557.78494867 2158.94858428 1549.21923976 2225.51654346 1532.90443286 2291.13530035 C1532.73705615 2291.81127264 1532.56967945 2292.48724493 1532.39723071 2293.18370122 C1527.12036699 2314.44242883 1520.7230437 2335.32899768 1513.90443286 2356.13530035 C1513.67435535 2356.83755743 1513.44427783 2357.53981451 1513.20722827 2358.2633521 C1501.59534839 2393.61081298 1487.738316 2428.05590828 1469.3956438 2460.49272222 C1467.90683642 2463.131041 1466.43954526 2465.78046678 1464.97474536 2468.43217535 C1455.13600064 2486.1052944 1443.87648952 2502.84267368 1431.90443286 2519.13530035 C1431.43827564 2519.77274175 1430.97211841 2520.41018316 1430.49183521 2521.06694097 C1424.42571993 2529.34164188 1418.16893755 2537.37031781 1411.46693286 2545.1392066 C1409.15349873 2547.84409071 1406.92981231 2550.59824574 1404.71693286 2553.38530035 C1394.15993223 2566.28625042 1382.16394636 2577.96894794 1370.40443286 2589.76030035 C1369.84426471 2590.32314733 1369.28409656 2590.88599432 1368.70695361 2591.46589727 C1362.6195002 2597.57543537 1356.48336032 2603.55037681 1349.90443286 2609.13530035 C1348.74733534 2610.15630687 1347.59236233 2611.17972644 1346.43958911 2612.20561285 C1337.90726562 2619.73470792 1329.08354174 2626.75813573 1319.97474536 2633.57524175 C1318.03079458 2635.04008203 1316.10574555 2636.52607282 1314.18568286 2638.0220191 C1241.33654497 2694.39739457 1151.6529501 2725.75930137 908.96693286 2768.26030035 C907.66175708 2768.33603277 906.3565813 2768.41176519 905.01185474 2768.48979253 C896.51411993 2768.95207564 888.01519836 2769.22449621 879.5082384 2769.4533698 C860.59576482 2769.96238476 841.71444662 2770.82478125 822.82108936 2771.80601568 C813.86912606 2772.26995984 804.91606654 2772.7122353 795.96302661 2773.1548316 C795.07775979 2773.19861188 794.19249297 2773.24239217 793.28039989 2773.28749914 C769.49420002 2774.46194398 745.71081989 2775.46806506 721.90443286 2776.13530035 C721.18206943 2776.15567106 720.459706 2776.17604177 719.71545276 2776.19702978 C668.92808521 2777.62385929 618.1358456 2778.31604735 567.33063622 2778.67040228 C565.13958504 2778.68579366 562.94853626 2778.7014901 560.75748798 2778.71728877 C494.13186411 2779.19758474 427.50775015 2779.28475764 360.8806414 2779.27060069 C349.46569448 2779.26822377 338.05074897 2779.26802808 326.63580188 2779.26911611 C325.80417995 2779.2691925 324.97255802 2779.26926888 324.11573542 2779.26934758 C320.73409122 2779.26965927 317.35244701 2779.26997771 313.9708028 2779.27030734 C282.6917813 2779.27331933 251.41276272 2779.27066965 220.13374167 2779.26521045 C192.76710201 2779.26047022 165.40046701 2779.26089508 138.03382739 2779.26567144 C106.78661284 2779.27110779 75.53940084 2779.27310512 44.29218587 2779.27005918 C40.9191452 2779.26973879 37.54610452 2779.26942593 34.17306384 2779.26911611 C33.3434349 2779.26903703 32.51380595 2779.26895796 31.65903674 2779.26887648 C20.29422542 2779.26784333 8.92941582 2779.26868808 -2.43539527 2779.27110285 C-69.04131698 2779.28503561 -135.64385959 2779.18084114 -202.24825029 2778.69754054 C-204.41724476 2778.68188863 -206.58624088 2778.6664932 -208.75523785 2778.65119133 C-297.60974298 2778.023578 -386.34423342 2775.93048091 -475.07750073 2771.19023199 C-490.5083286 2770.37306305 -505.93753016 2769.7587968 -521.38148633 2769.25187749 C-608.40031621 2766.37532153 -693.82668289 2752.47838812 -977.09556714 2619.13530035 C-977.61070874 2618.70362554 -978.12585034 2618.27195074 -978.65660229 2617.82719488 C-992.97528559 2605.81784216 -1006.3694683 2592.95094664 -1019.59556714 2579.76030035 C-1020.16223096 2579.19631536 -1020.72889477 2578.63233038 -1021.31273022 2578.05125494 C-1027.45990427 2571.92613533 -1033.47757162 2565.75611721 -1039.09556714 2559.13530035 C-1040.11655223 2557.97818391 -1041.13997315 2556.82321194 -1042.16587964 2555.6704566 C-1049.68545284 2547.14892373 -1056.70369305 2538.33712851 -1063.51353589 2529.2407691 C-1065.04979725 2527.19621385 -1066.60131518 2525.1642804 -1068.15806714 2523.13530035 C-1088.78097014 2496.15093748 -1106.2698349 2466.7631821 -1121.07847729 2436.22270269 C-1122.17895431 2433.96416249 -1123.29970053 2431.71620645 -1124.41978589 2429.4673316 C-1164.16940467 2348.82359547 -1184.2870162 2255.01005133 -1200.20543042 2068.8044898 C-1200.75356426 2054.86845053 -1201.37718752 2040.93731779 -1202.04087964 2027.0063941 C-1205.26178291 1959.27702273 -1205.26178291 1959.27702273 -1206.22477856 1926.6113059 C-1206.28049753 1924.72241119 -1206.33729818 1922.83354847 -1206.39415112 1920.94468755 C-1207.81453391 1872.94280211 -1208.30575414 1824.91908573 -1208.63475795 1776.89942446 C-1208.65514991 1773.94787769 -1208.67618821 1770.99633564 -1208.69720001 1768.04479323 C-1209.16616068 1702.04317971 -1209.24490215 1636.04276119 -1209.23086754 1570.03973011 C-1209.22848992 1558.63006321 -1209.22829509 1547.22039772 -1209.2293829 1535.81073064 C-1209.22945929 1534.97932258 -1209.22953567 1534.14791451 -1209.22961437 1533.29131226 C-1209.22992606 1529.91049061 -1209.2302445 1526.52966896 -1209.23057414 1523.14884731 C-1209.23358574 1491.88101535 -1209.23093708 1460.61318631 -1209.22547724 1429.34535481 C-1209.22073706 1401.9919692 -1209.22116191 1374.63858826 -1209.22593823 1347.28520269 C-1209.23137526 1316.04895825 -1209.23337155 1284.81271636 -1209.23032597 1253.57647151 C-1209.23000558 1250.20427103 -1209.22969272 1246.83207054 -1209.2293829 1243.45987005 C-1209.22930383 1242.63045503 -1209.22922475 1241.80104 -1209.22914327 1240.94649119 C-1209.22811036 1229.5873072 -1209.22895434 1218.22812493 -1209.23136964 1206.86894117 C-1209.24535331 1140.06776061 -1209.13847187 1073.26996432 -1208.65780733 1006.47029629 C-1208.64215155 1004.28207279 -1208.62675672 1002.09384762 -1208.61145812 999.9056216 C-1207.99088809 911.24136692 -1205.88056004 822.69693204 -1201.15049878 734.15361089 C-1200.33335016 718.72270073 -1199.71906626 703.29341854 -1199.21214429 687.84938116 C-1196.33528452 600.82136093 -1182.42390566 515.40902709 -1075.61705151 267.21000738 C-1073.97734326 264.97408941 -1072.35656995 262.72510428 -1070.73619214 260.4751441 C-1060.85186242 246.82357928 -1050.40905557 233.66785706 -1039.01744214 221.23686285 C-1037.27813624 219.33493892 -1035.58793583 217.40210303 -1033.90806714 215.44780035 C-1022.77994509 202.69682717 -1011.11244504 189.94741073 -998.20884839 178.9673316 C-996.03914964 177.08639128 -993.93091024 175.14615296 -991.82676831 173.19242925 C-985.77838509 167.58119788 -979.53916533 162.29188356 -973.09556714 157.13530035 C-971.96472757 156.21289659 -970.83455199 155.28967839 -969.70494214 154.3657691 C-949.06093738 137.5576436 -926.9783491 122.71079981 -904.09556714 109.13530035 C-903.30907788 108.66656499 -902.52258862 108.19782964 -901.71226636 107.71489019 C-829.07935848 64.64239515 -745.03949724 39.83929435 -548.15806714 11.01030035 C-546.85289136 10.93456792 -545.54771557 10.8588355 -544.20298901 10.78080816 C-535.7052542 10.31852506 -527.20633264 10.04610448 -518.69937268 9.81723089 C-499.78680857 9.3082135 -480.90539674 8.44582746 -462.01194897 7.46458501 C-453.06137636 7.0006998 -444.10971407 6.55835451 -435.15806714 6.1157691 C-434.2729218 6.07198881 -433.38777646 6.02820852 -432.47580853 5.98310155 C-408.68821204 4.80847381 -384.90313645 3.80838365 -361.09556714 3.13530035 C-360.38104382 3.11492963 -359.66652051 3.09455892 -358.93034497 3.07357091 C-308.31854867 1.63419792 -257.70235701 0.95014704 -207.07231294 0.60019841 C-204.86228288 0.58481099 -202.65225524 0.56911404 -200.44222811 0.55331192 C-133.62812808 0.07562897 -66.81556706 -0.01420717 0 0 Z M-303.84556714 372.88530035 C-304.99335141 373.00885397 -304.99335141 373.00885397 -306.16432324 373.13490362 C-359.01443213 378.8678036 -411.49333959 389.83230255 -462.09556714 406.13530035 C-462.8247334 406.36990972 -463.55389966 406.6045191 -464.30516186 406.84623785 C-526.69067552 426.98448701 -585.88097228 456.43080619 -636.09556714 499.13530035 C-636.89655835 499.81109136 -636.89655835 499.81109136 -637.7137312 500.50053472 C-648.82953903 509.88165029 -659.59669074 519.52607603 -669.81431714 529.8892066 C-671.76339155 531.80824391 -673.74570386 533.57439723 -675.84556714 535.32280035 C-681.84635417 540.46286843 -687.04699569 546.4539355 -692.3777937 552.26908941 C-693.9263523 553.95146319 -695.48748603 555.62047102 -697.05650464 557.28373785 C-703.3636508 564.02461326 -709.10341391 571.05245811 -714.72496167 578.36625738 C-716.07084434 580.10339058 -717.43614579 581.82290569 -718.81041089 583.5376441 C-775.06313465 653.83586561 -806.16102427 740.25766881 -834.34556714 893.63530035 C-834.42288067 894.31074895 -834.50019421 894.98619756 -834.57985058 895.68211431 C-837.55348652 922.07490592 -838.39630481 948.3202592 -838.35870361 974.84951407 C-838.35446577 979.43503207 -838.36197275 984.02053522 -838.36785612 988.60604937 C-838.37655199 996.61333448 -838.37795404 1004.62059401 -838.37435284 1012.62788267 C-838.36901154 1024.53619705 -838.37517537 1036.44448696 -838.38343578 1048.35279868 C-838.39862531 1070.86674315 -838.40038601 1093.38067631 -838.39791275 1115.89462482 C-838.39607546 1133.28967198 -838.39784883 1150.68471547 -838.40213719 1168.07976217 C-838.40273961 1170.58467162 -838.40334081 1173.08958106 -838.40394079 1175.59449051 C-838.40484811 1179.36982449 -838.40575678 1183.14515848 -838.40667314 1186.92049245 C-838.41509525 1221.99418507 -838.41944356 1257.06787631 -838.41526642 1292.1415698 C-838.41518837 1292.80162159 -838.41511031 1293.46167339 -838.41502989 1294.14172675 C-838.41415723 1301.50061277 -838.41322796 1308.85949878 -838.41227926 1316.21838479 C-838.41219375 1316.8826775 -838.41210824 1317.54697021 -838.41202014 1318.231393 C-838.41150134 1322.26102386 -838.41150134 1322.26102386 -838.41097791 1326.29065472 C-838.40544519 1368.7577587 -838.4129794 1411.22484092 -838.43174878 1453.69194097 C-838.45250983 1500.72284976 -838.46318509 1547.75374809 -838.45917329 1594.78466208 C-838.45877799 1599.807335 -838.45841643 1604.83000794 -838.45807591 1609.85268087 C-838.45798518 1611.08925514 -838.45789445 1612.32582942 -838.45780097 1613.59987564 C-838.45663888 1632.20228465 -838.46325359 1650.80468039 -838.47388783 1669.40708608 C-838.48598263 1690.58515748 -838.48744982 1711.76319979 -838.47509766 1732.94127166 C-838.46850777 1744.76647151 -838.47000982 1756.59160164 -838.48368618 1768.4167958 C-838.49201111 1776.34789448 -838.48913043 1784.27894166 -838.47771091 1792.21003626 C-838.47153288 1796.7074563 -838.46964455 1801.20474169 -838.48157424 1805.70215326 C-838.68785561 1889.24809902 -823.89987614 1971.60590327 -779.09556714 2096.13530035 C-778.5920271 2097.23438726 -778.08848706 2098.33347417 -777.56968823 2099.46586675 C-763.3994028 2130.16451957 -746.3638813 2159.06616866 -726.09556714 2186.13530035 C-725.42315991 2187.03732183 -725.42315991 2187.03732183 -724.7371687 2187.95756597 C-719.31638242 2195.2044309 -713.6094372 2202.1769503 -707.71666089 2209.04155035 C-705.42609622 2211.71949596 -703.26184673 2214.48059901 -701.09556714 2217.26030035 C-695.87526552 2223.70499998 -689.92628592 2229.43496175 -684.00962964 2235.235398 C-680.35996842 2238.82169705 -676.79270605 2242.40756654 -673.45884839 2246.29155035 C-670.17329553 2250.11851592 -666.62794641 2253.54711864 -662.90806714 2256.94780035 C-662.25588208 2257.5489063 -661.60369702 2258.15001226 -660.93174878 2258.76933355 C-659.60987834 2259.98697741 -658.28657862 2261.20307167 -656.96177807 2262.41752691 C-655.27940429 2263.96608551 -653.61039646 2265.52721924 -651.94712964 2267.09623785 C-645.20625423 2273.40338401 -638.17840937 2279.14314712 -630.86461011 2284.76469488 C-629.1274769 2286.11057755 -627.40796179 2287.475879 -625.69322339 2288.8501441 C-554.17941283 2346.07558371 -465.4616441 2377.71890441 -271.09556714 2409.13530035 C-269.85658285 2409.21865095 -268.61759857 2409.30200156 -267.34106931 2409.38787795 C-251.14036223 2410.38853642 -234.92603826 2410.28014543 -218.70235244 2410.26996926 C-214.29802816 2410.26831952 -209.89370846 2410.27249073 -205.48938569 2410.27587844 C-197.78645535 2410.28100729 -190.08353129 2410.28245403 -182.38059941 2410.28142232 C-170.92502983 2410.27989179 -159.46946715 2410.28407156 -148.01389892 2410.28929695 C-126.35760326 2410.29894983 -104.70130998 2410.30178043 -83.04501242 2410.30235401 C-66.31331508 2410.30281425 -49.58161866 2410.30487621 -32.84992161 2410.30805463 C-28.02677374 2410.30895224 -23.20362587 2410.30984205 -18.38047799 2410.31072951 C-17.18128449 2410.31095056 -15.98209098 2410.31117161 -14.74655827 2410.31139935 C18.96927488 2410.31755064 52.68510772 2410.32150022 86.40094146 2410.32105608 C88.30632527 2410.32103271 88.30632527 2410.32103271 90.25020169 2410.32100887 C96.68778442 2410.32092576 103.12536716 2410.32082672 109.56294989 2410.32072416 C110.84138051 2410.32070421 112.11981113 2410.32068427 113.43698208 2410.32066372 C116.02228015 2410.32062328 118.60757822 2410.32058148 121.1928763 2410.32053833 C161.39531609 2410.31992589 201.59774744 2410.3274276 241.80018482 2410.34111089 C287.01261711 2410.3564932 332.22504386 2410.3650758 377.43747893 2410.36414767 C382.26471342 2410.36407305 387.0919479 2410.36402434 391.91918239 2410.36399335 C393.10768629 2410.3639817 394.29619019 2410.36397005 395.52070935 2410.36395804 C414.59327191 2410.36392735 433.66582709 2410.37029562 452.73838746 2410.37892562 C471.93015531 2410.38742953 491.12191247 2410.38837072 510.31368118 2410.3818163 C521.6935047 2410.37813872 533.07329557 2410.37989899 544.45311558 2410.38975864 C552.07999797 2410.3958044 559.70685698 2410.39441275 567.33373835 2410.38728814 C571.66246453 2410.38344493 575.99112804 2410.38251769 580.31984954 2410.39074549 C608.34071509 2410.44053539 636.20901952 2409.34067307 664.09193286 2406.38530035 C664.88329639 2406.30293127 665.67465991 2406.22056219 666.49000415 2406.13569707 C719.50711868 2400.56239384 772.16154101 2389.46189835 822.90443286 2373.13530035 C823.94307483 2372.80175542 823.94307483 2372.80175542 825.00269946 2372.46147222 C845.5433148 2365.84436124 865.4166922 2358.47033696 884.90443286 2349.13530035 C885.99014575 2348.61854742 887.07585864 2348.10179449 888.19447193 2347.56938238 C904.24038524 2339.88239147 919.70283189 2331.37416958 934.90443286 2322.13530035 C936.19003101 2321.35606206 936.19003101 2321.35606206 937.50160083 2320.5610816 C949.39169201 2313.31290065 960.7207985 2305.42474063 971.90443286 2297.13530035 C972.9808798 2296.34702625 974.05766673 2295.55921608 975.13490161 2294.7720191 C998.08180367 2277.832808 1019.27383281 2258.80361034 1039.46693286 2238.69780035 C1040.20459888 2237.96480718 1040.94226489 2237.23181402 1041.70228443 2236.47660894 C1045.75507108 2232.41182086 1049.63190292 2228.24997903 1053.3787981 2223.90165777 C1055.2570765 2221.72701474 1057.20487062 2219.62104687 1059.15443286 2217.51030035 C1063.70246051 2212.46976209 1067.87135382 2207.18651569 1072.02552661 2201.82280035 C1073.92219518 2199.37748727 1075.84990561 2196.9637893 1077.81458911 2194.57280035 C1085.23408024 2185.52335319 1091.91297579 2176.09358186 1098.40980396 2166.36332769 C1099.74278731 2164.37626364 1101.09343191 2162.40346017 1102.45521411 2160.4360816 C1115.16115679 2141.96034042 1125.83934486 2122.14400116 1135.90443286 2102.13530035 C1136.58602466 2100.79411138 1136.58602466 2100.79411138 1137.28138599 2099.42582769 C1173.06256633 2028.64859362 1192.55393214 1947.30269577 1207.10755786 1788.48686285 C1207.11447246 1786.62285414 1207.12142135 1784.75884555 1207.12840137 1782.89483709 C1207.14767304 1776.84998992 1207.15209123 1770.8051743 1207.15443286 1764.76030035 C1207.15531658 1763.71376413 1207.15620029 1762.66722791 1207.15711078 1761.58897848 C1207.17791751 1733.65740976 1206.8887997 1705.75721108 1205.95328769 1677.84072179 C1205.91929999 1676.82602602 1205.88531228 1675.81133024 1205.85029465 1674.76588611 C1205.62062795 1667.94479345 1205.38167902 1661.12408174 1205.1364046 1654.30353422 C1204.1759373 1627.50178388 1203.37725247 1600.70106571 1202.82435474 1573.88774175 C1202.80312986 1572.86721268 1202.78190498 1571.84668361 1202.76003692 1570.79522941 C1201.60982765 1515.05849961 1201.58777127 1459.31770531 1201.56812866 1403.57182688 C1201.56240206 1387.56300329 1201.54331025 1371.55420591 1201.52246681 1355.54539587 C1201.51219519 1347.64439344 1201.5025211 1339.74339028 1201.4930025 1331.84238691 C1201.49205099 1331.05320529 1201.49109948 1330.26402368 1201.49011914 1329.45092747 C1201.46788766 1310.89878203 1201.45147875 1292.3466323 1201.43617114 1273.79448003 C1201.43516982 1272.5850511 1201.43516982 1272.5850511 1201.43414826 1271.35118925 C1201.4226249 1257.42162124 1201.41152196 1243.49205289 1201.40052566 1229.56248445 C1201.39139625 1217.99886567 1201.38215075 1206.43524699 1201.37269458 1194.87162847 C1201.3720297 1194.05582528 1201.37136483 1193.2400221 1201.3706798 1192.3994976 C1201.35543336 1173.73295027 1201.33841931 1155.06640683 1201.31586322 1136.39986677 C1201.31491396 1135.61376155 1201.31396471 1134.82765634 1201.31298668 1134.01772976 C1201.3034664 1126.16763063 1201.29363464 1118.31753196 1201.28334272 1110.4674338 C1201.26146601 1093.7314635 1201.24477032 1076.99551254 1201.23921718 1060.25952835 C1201.23510166 1048.10893616 1201.22412311 1035.95836627 1201.20623943 1023.8077864 C1201.1968044 1017.25329112 1201.19069073 1010.69882506 1201.19330272 1004.1443202 C1201.20180328 977.73596158 1201.06589226 951.46850976 1198.90443286 925.13530035 C1198.78506744 923.64757592 1198.78506744 923.64757592 1198.66329059 922.12979645 C1198.22523678 916.72796246 1197.72566326 911.33716039 1197.15443286 905.94780035 C1197.07206378 905.15643682 1196.9896947 904.36507329 1196.90482959 903.54972906 C1189.03703288 828.70580586 1171.33344196 751.70768384 1139.90443286 683.13530035 C1139.39944263 682.03186285 1138.89445239 680.92842535 1138.37415943 679.79155035 C1124.20461786 649.09814339 1107.1696487 620.2002941 1086.90443286 593.13530035 C1086.45616138 592.53395269 1086.00788989 591.93260503 1085.54603443 591.31303472 C1080.12524814 584.06616979 1074.41830293 577.09365039 1068.52552661 570.22905035 C1066.23496195 567.55110473 1064.07071245 564.79000168 1061.90443286 562.01030035 C1056.68413125 555.56560071 1050.73515165 549.83563894 1044.81849536 544.03520269 C1041.16883414 540.44890364 1037.60157178 536.86303415 1034.26771411 532.97905035 C1030.98216126 529.15208477 1027.43681213 525.72348205 1023.71693286 522.32280035 C1023.0647478 521.72169439 1022.41256275 521.12058843 1021.7406145 520.50126714 C1020.41874407 519.28362328 1019.09544435 518.06752902 1017.7706438 516.85307378 C1016.08827002 515.30451518 1014.41926219 513.74338146 1012.75599536 512.17436285 C1006.01511995 505.86721668 998.98727509 500.12745357 991.67347583 494.50590581 C989.93634262 493.16002314 988.21682752 491.79472169 986.50208911 490.4204566 C914.98827855 433.19501698 826.27050983 401.55169628 631.90443286 370.13530035 C630.66537051 370.05194974 629.42630816 369.96859913 628.14969847 369.88272274 C611.95112086 368.88224645 595.73897009 368.99045448 579.51741953 369.00063143 C575.11398386 369.00228118 570.71055277 368.99810995 566.30711862 368.99472225 C558.60571863 368.9895934 550.90432492 368.98814666 543.20292339 368.98917837 C531.74957591 368.99070891 520.29623534 368.98652911 508.84288922 368.98130374 C487.19047261 368.97165076 465.53805837 368.96882025 443.88563986 368.96824668 C427.15633479 368.96778643 410.42703064 368.96572442 393.69772586 368.96254606 C388.87515526 368.96164845 384.05258466 368.96075864 379.23001406 368.95987118 C378.0309597 368.95965013 376.83190534 368.95942908 375.59651601 368.95920134 C341.88425624 368.95305 308.17199679 368.94910047 274.45973644 368.94954462 C272.55454045 368.94956798 272.55454045 368.94956798 270.61085566 368.94959182 C264.17392089 368.94967493 257.73698612 368.94977397 251.30005135 368.94987653 C249.38260221 368.94990645 249.38260221 368.94990645 247.42641672 368.94993697 C244.84138359 368.94997741 242.25635045 368.95001921 239.67131731 368.95006236 C199.47558138 368.95067476 159.27985388 368.94317384 119.08412036 368.9294898 C73.87790442 368.91410619 28.67169402 368.90552497 -16.53452471 368.90645302 C-21.36149628 368.90652765 -26.18846785 368.90657636 -31.01543942 368.90660734 C-32.2038759 368.90661899 -33.39231237 368.90663065 -34.61676207 368.90664265 C-53.6854078 368.90667334 -72.75404616 368.90030599 -91.8226897 368.89167507 C-111.01223444 368.88316953 -130.20176848 368.88223123 -149.39131407 368.88878439 C-160.76870554 368.89246094 -172.14606435 368.89070485 -183.52345231 368.88084205 C-191.14998994 368.87479356 -198.7765042 368.87619089 -206.40304081 368.88331255 C-210.73074987 368.88715353 -215.05839627 368.88808976 -219.38610063 368.8798552 C-247.61584363 368.82964407 -275.76376816 369.78890815 -303.84556714 372.88530035 Z " fill="#FFC107" transform="translate(1486.095567137003,276.86469965428114)"/>
<path d="M0 0 C4.59023177 0.00776892 9.18043603 -0.00223088 13.77066361 -0.00973 C21.77680579 -0.02045602 29.78288705 -0.02030458 37.78903186 -0.01258852 C49.69532651 -0.00114533 61.60157066 -0.00709143 73.50786508 -0.01621344 C94.78412443 -0.03193986 116.06035661 -0.03066988 137.33661849 -0.0219767 C155.95670291 -0.01440687 174.57677741 -0.01247068 193.19686305 -0.01604463 C194.43570355 -0.01627379 195.67454405 -0.01650294 196.95092518 -0.01673904 C201.98076138 -0.01767318 207.01059757 -0.01862839 212.04043376 -0.01961833 C258.47806877 -0.02864878 304.91568956 -0.02096956 351.35332159 -0.00501886 C393.80734789 0.00954792 436.26134579 0.00887176 478.71537196 -0.00571062 C525.742625 -0.02181202 572.76986561 -0.02812947 619.7971214 -0.01887383 C624.81738236 -0.01791179 629.83764333 -0.01697326 634.85790431 -0.01604463 C636.09386927 -0.0158074 637.32983424 -0.01557017 638.60325268 -0.01532575 C657.20399972 -0.01192447 675.80473571 -0.01588329 694.40548121 -0.02348329 C715.5718124 -0.03208884 736.73811235 -0.02985765 757.90443968 -0.01364106 C769.72606584 -0.00488078 781.54762425 -0.00418628 793.36924854 -0.01557958 C801.29265016 -0.02236871 809.21599811 -0.01800983 817.13939185 -0.00506528 C821.63558793 0.00198474 826.13165071 0.00469608 830.627842 -0.00628323 C904.1153861 -0.1721217 981.08158747 11.66927456 1047.52738368 44.38540266 C1048.80500575 45.01382063 1048.80500575 45.01382063 1050.10843837 45.65493391 C1083.41818478 62.22433007 1111.88715101 84.80265368 1138.21488368 110.88540266 C1139.094266 111.75165266 1139.97364833 112.61790266 1140.8796786 113.51040266 C1146.86349603 119.48690698 1152.29550324 125.74380896 1157.52738368 132.38540266 C1158.1081869 133.11759016 1158.68899012 133.84977766 1159.28739344 134.60415266 C1179.81015435 160.67822865 1195.36912732 188.9934282 1208.52738368 219.38540266 C1208.86237879 220.15771223 1209.19737391 220.9300218 1209.5425204 221.72573469 C1233.83193497 278.39297517 1246.74230242 343.33165997 1246.65881144 404.93631647 C1246.66046584 406.45050338 1246.66255426 407.96468986 1246.66503154 409.47887565 C1246.67054682 413.6133918 1246.66993532 417.74788703 1246.66825395 421.88240566 C1246.66751809 426.39089572 1246.67255691 430.89938012 1246.67682897 435.40786771 C1246.68438286 444.33838249 1246.6866007 453.26889129 1246.68715803 462.19940893 C1246.68807428 472.90198276 1246.69474966 483.60455111 1246.70150485 494.30712257 C1246.71754197 520.17372735 1246.72346596 546.04033153 1246.7282536 571.9069404 C1246.73059229 584.15447666 1246.73419528 596.40201245 1246.73794898 608.64954835 C1246.75078374 650.60969761 1246.76150197 692.56984662 1246.76495158 734.52999781 C1246.76517321 737.16260922 1246.76539499 739.79522063 1246.76561693 742.42783204 C1246.76583757 745.06665627 1246.76605805 747.7054805 1246.76627838 750.34430472 C1246.76672092 755.63787057 1246.76716804 760.93143642 1246.76761805 766.22500227 C1246.76772744 767.53749259 1246.76783683 768.84998291 1246.76794954 770.20224567 C1246.77157732 812.72597527 1246.78748719 855.24968779 1246.81080842 897.77341085 C1246.83544414 942.77665468 1246.84912619 987.77988875 1246.8503195 1032.78313951 C1246.85049094 1037.73042824 1246.85070636 1042.67771697 1246.85095393 1047.62500571 C1246.8510097 1048.843086 1246.85106547 1050.06116629 1246.85112293 1051.3161581 C1246.85227025 1070.85983303 1246.86326519 1090.40349035 1246.87784098 1109.94715935 C1246.89225864 1129.62016125 1246.89541341 1149.29314074 1246.88740101 1168.96614647 C1246.88296916 1180.62971746 1246.88670649 1192.29321573 1246.90263951 1203.95677706 C1246.91247811 1211.77680237 1246.9111278 1219.59677744 1246.90120328 1227.41680243 C1246.89587429 1231.8534933 1246.89489187 1236.29004586 1246.90771201 1240.72672457 C1247.15468825 1332.04773009 1228.6972668 1431.01502002 1130.27738368 1566.76040266 C1126.16282234 1570.81655541 1121.96370603 1574.68489545 1117.52738368 1578.38540266 C1116.98903895 1578.83754133 1116.45069422 1579.28968001 1115.89603602 1579.75551985 C1047.40259684 1637.09290007 959.46638847 1663.1854179 830.03524386 1674.51683043 C828.53975134 1674.51848538 827.04425925 1674.52057405 825.54876786 1674.52305053 C821.47083308 1674.52855856 817.39291954 1674.52795568 813.31498225 1674.52627294 C808.86611868 1674.52553636 804.41726083 1674.53057755 799.96839976 1674.53484796 C791.15860172 1674.54239762 782.34880976 1674.54461947 773.53900883 1674.54517701 C762.980209 1674.54609368 752.42141472 1674.55277022 741.86261729 1674.55952384 C716.34577573 1674.57555598 690.82893478 1674.58148418 665.31208908 1674.58627259 C653.23041077 1674.58861157 641.14873292 1674.59221457 629.06705498 1674.59596796 C587.67498719 1674.60880169 546.28291967 1674.61952048 504.89084994 1674.62297056 C502.2942419 1674.62319219 499.69763385 1674.62341398 497.1010258 1674.62363592 C494.49829911 1674.62385655 491.89557241 1674.62407704 489.29284572 1674.62429736 C484.07170863 1674.6247399 478.85057155 1674.62518702 473.62943446 1674.62563704 C472.33490362 1674.62574643 471.04037278 1674.62585582 469.70661373 1674.62596853 C427.75760923 1674.62959691 385.80862203 1674.64550965 343.85962415 1674.6688274 C299.46388316 1674.69345988 255.06815206 1674.70714501 210.67240404 1674.70833848 C205.79257054 1674.70850992 200.91273704 1674.70872535 196.03290354 1674.70897291 C194.83143271 1674.70902868 193.62996188 1674.70908445 192.39208284 1674.70914191 C173.11121056 1674.71028944 153.83035612 1674.72128611 134.54948985 1674.73585997 C115.14437409 1674.75027333 95.73928105 1674.75343477 76.33416141 1674.74541999 C64.82791113 1674.74098632 53.32173454 1674.74473299 41.81549404 1674.7606585 C34.10292249 1674.77049048 26.39040192 1674.76915291 18.67783072 1674.75922227 C14.30088921 1674.75388869 9.92408796 1674.75292648 5.54715873 1674.76573099 C-75.73281747 1674.98810774 -160.63229184 1659.20741471 -282.7128507 1590.79116438 C-284.26421568 1589.55188031 -285.82840423 1588.32868561 -287.39449132 1587.10805891 C-292.48958374 1583.11268365 -297.33222211 1578.89130607 -302.11324132 1574.52602766 C-304.16128592 1572.66786799 -306.24218602 1570.86512846 -308.34761632 1569.07290266 C-311.87664039 1565.99484921 -315.21673496 1562.74927461 -318.53511632 1559.44790266 C-319.0177091 1558.96990217 -319.50030187 1558.49190169 -319.99751867 1557.99941633 C-324.01828653 1553.96169751 -327.76163377 1549.70759377 -331.47261632 1545.38540266 C-332.01958165 1544.75045882 -332.56654699 1544.11551497 -333.13008703 1543.4613304 C-342.3961967 1532.62568068 -350.71346448 1521.34315392 -358.47261632 1509.38540266 C-358.94264074 1508.66304426 -359.41266515 1507.94068587 -359.89693273 1507.19643782 C-406.33076995 1435.16551544 -427.71833909 1339.83489925 -427.60404409 1254.70954989 C-427.60569842 1253.18171956 -427.60778681 1251.65388965 -427.61026419 1250.12606044 C-427.61578027 1245.95366288 -427.61516781 1241.78128603 -427.6134866 1237.60888601 C-427.61275082 1233.0593318 -427.61778937 1228.50978322 -427.62206162 1223.96023147 C-427.62961596 1214.94809682 -427.63183337 1205.93596811 -427.63239067 1196.92383063 C-427.63330688 1186.12356761 -427.63998212 1175.32331002 -427.6467375 1164.52304934 C-427.66277507 1138.42029843 -427.66869865 1112.31754813 -427.67348625 1086.21479318 C-427.67582488 1073.85563913 -427.67942787 1061.49648554 -427.68318162 1049.13733185 C-427.6960164 1006.79542048 -427.70673465 964.45350936 -427.71018422 922.11159609 C-427.71040585 919.45500398 -427.71062764 916.79841188 -427.71084958 914.14181977 C-427.71107021 911.47895556 -427.7112907 908.81609135 -427.71151102 906.15322713 C-427.71189791 901.4800811 -427.71228752 896.80693506 -427.71268209 892.13378903 C-427.71279451 890.79632079 -427.71290593 889.45885256 -427.71301634 888.12138433 C-427.71656236 845.2074601 -427.73162717 802.29355265 -427.75495409 759.37963482 C-427.77999181 713.29973195 -427.79434129 667.21983938 -427.79555214 621.13992946 C-427.79572358 616.14770486 -427.79593901 611.15548027 -427.79618657 606.16325567 C-427.79624234 604.93411018 -427.79629811 603.70496469 -427.79635557 602.43857236 C-427.79750295 582.71636954 -427.80849836 562.99418417 -427.82307363 543.27198723 C-427.83749043 523.41975219 -427.84064653 503.56753936 -427.83263365 483.71530052 C-427.82820141 471.94508411 -427.83194074 460.17493974 -427.84787216 448.4047329 C-427.85770936 440.51362072 -427.85636174 432.62255834 -427.84643593 424.73144649 C-427.84110596 420.25415441 -427.84012785 415.7769994 -427.85294465 411.29971935 C-428.04227539 340.55421361 -419.24850279 263.26628299 -387.47261632 199.38540266 C-386.84999913 198.11575667 -386.84999913 198.11575667 -386.21480382 196.82046126 C-373.60038201 171.25082479 -356.76654102 147.74756709 -337.57808507 126.70962141 C-335.73284077 124.67266342 -333.94179962 122.60269419 -332.16011632 120.51040266 C-324.92129116 112.21100544 -316.94771112 104.41284445 -308.47261632 97.38540266 C-307.93717199 96.93616438 -307.40172765 96.4869261 -306.85005773 96.02407454 C-278.61875436 72.38856474 -246.94047756 52.55470094 -212.47261632 39.38540266 C-211.87447118 39.15637251 -211.27632604 38.92734236 -210.66005529 38.6913719 C-142.64552344 12.71384994 -72.79445387 -0.17775775 0 0 Z M887.52738368 194.38540266 C886.86222743 194.98610579 886.19707118 195.58680891 885.51175868 196.20571516 C868.98853842 211.72142199 859.64693478 231.93710152 853.52738368 253.38540266 C853.33241297 254.06119368 853.13744227 254.73698469 852.93656337 255.43325423 C844.80725134 285.13710754 851.69854359 317.20036038 865.55863368 343.94790266 C882.550854 373.61685878 910.25710321 394.90972413 943.10306727 404.10659407 C953.99228752 406.93504288 963.46251437 408.25146223 974.52738368 405.38540266 C975.27987391 405.19655501 976.03236415 405.00770735 976.80765712 404.81313704 C1011.29044006 395.9770094 1038.82296183 374.67467217 1057.33988368 344.38540266 C1072.73754356 316.78721037 1077.56514907 282.29735225 1069.21195399 251.72671126 C1059.45332837 218.35109795 1038.79134534 190.99967293 1008.40482508 173.79507063 C965.18077541 150.2336481 922.32238708 161.57534912 887.52738368 194.38540266 Z M189.52738368 350.38540266 C187.92395106 351.11992659 187.92395106 351.11992659 186.28812587 351.86928938 C143.77418669 371.50754365 104.43714056 396.32019565 68.52738368 426.38540266 C68.02819422 426.79967512 67.52900477 427.21394758 67.01468837 427.64077376 C54.20654315 438.27224279 42.14189702 449.59750343 30.39554774 461.38686751 C28.63594888 463.1518881 26.87097971 464.91141399 25.10550868 466.67055891 C19.36569856 472.40669644 13.76395656 478.17968357 8.52738368 484.38540266 C7.57868559 485.46903241 6.62821088 486.55110975 5.67582118 487.63149641 C-2.12494732 496.575469 -9.36792573 505.8826553 -16.47261632 515.38540266 C-16.95085851 516.02091048 -17.4291007 516.65641829 -17.92183507 517.31118391 C-73.20684554 590.86967122 -107.99578338 678.65384707 -120.47261632 781.38540266 C-120.59266027 782.42873762 -120.71270421 783.47207258 -120.83638585 784.54702376 C-128.4153526 853.36765624 -119.9945229 925.41190942 -99.47261632 991.38540266 C-99.12473058 992.50608137 -98.77684484 993.62676008 -98.4184171 994.78139876 C-81.94741793 1047.2247586 -57.23038388 1098.12499159 -24.47261632 1142.38540266 C-23.96214757 1143.07843489 -23.45167882 1143.77146712 -22.92574132 1144.48550032 C-11.57013733 1159.87107888 0.37271498 1174.74140569 13.26175868 1188.87368391 C14.49441413 1190.24023126 15.72079194 1191.61304006 16.91239344 1193.01552962 C22.07784932 1199.06509885 27.66560592 1204.6755506 33.29715907 1210.28554915 C34.96164645 1211.94467586 36.62071815 1213.60908318 38.2793368 1215.27407454 C43.8568863 1220.8554286 49.50880649 1226.27729623 55.52738368 1231.38540266 C56.68449066 1232.40639847 57.83946315 1233.42981871 58.99222743 1234.45571516 C67.46802467 1241.93571539 76.21752465 1248.94296963 85.27543055 1255.70425032 C86.80531813 1256.8463585 88.33257569 1257.99199639 89.8574618 1259.14077376 C100.78966504 1267.37591698 111.88808049 1275.18146501 123.52738368 1282.38540266 C124.68077235 1283.10010725 124.68077235 1283.10010725 125.8574618 1283.82925032 C192.08592232 1324.65040744 265.22575758 1351.27024957 529.22171962 1350.17251204 C597.60016919 1333.89096688 663.1618911 1304.57280595 719.52738368 1262.38540266 C720.66752081 1261.54229461 721.80811475 1260.69980377 722.94925868 1259.85805891 C736.50023662 1249.79800549 749.51690407 1239.05376689 761.99100672 1227.68618391 C763.57732218 1226.24721607 765.17057271 1224.81581481 766.77396571 1223.39590071 C772.96418457 1217.90482928 778.88770551 1212.18042173 784.72391688 1206.31924055 C786.22043293 1204.81733342 787.72226667 1203.32089204 789.2246493 1201.82485579 C794.53669999 1196.51679789 799.65535957 1191.10352697 804.52738368 1185.38540266 C805.54857186 1184.22846546 806.57198096 1183.07348445 807.59769618 1181.92055891 C815.07769641 1173.44476167 822.08495064 1164.69526169 828.84623133 1155.63735579 C829.98833951 1154.10746821 831.13397741 1152.58021065 832.28275477 1151.05532454 C886.62478873 1078.91594047 920.50180428 993.77728663 937.71488368 834.63540266 C937.71427943 833.74732924 937.71367518 832.85925581 937.71305262 831.94427107 C937.55793423 747.1957131 916.44721279 665.92722999 878.52738368 590.38540266 C878.098287 589.52994856 877.66919032 588.67449446 877.22709071 587.79311751 C860.29963654 554.32856975 838.55741157 523.10991389 814.52738368 494.38540266 C814.03028895 493.78921126 813.53319422 493.19301985 813.02103602 492.57876204 C801.86057776 479.23769365 789.92605759 466.70407826 777.65238368 454.38540266 C776.77267909 453.50102522 775.8929745 452.61664778 774.98661219 451.70547102 C769.99318784 446.72434924 764.88864078 441.9659486 759.52738368 437.38540266 C758.33583446 436.34017271 757.14570524 435.29332154 755.95707118 434.24477766 C688.56660838 375.16079948 606.81135339 334.8719814 189.52738368 350.38540266 Z " fill="#FFC107" transform="translate(1260.4726163223386,832.6145973373204)"/>
<path d="M0 0 C1.56561424 -0.01052147 1.56561424 -0.01052147 3.16285706 -0.02125549 C6.51486573 -0.03866986 9.86669774 -0.04510829 13.21875 -0.046875 C14.36391083 -0.04754974 15.50907166 -0.04822449 16.68893433 -0.04891968 C33.56121976 -0.03310907 50.04801843 0.37031667 66.71875 3.203125 C67.770625 3.37473145 68.8225 3.54633789 69.90625 3.72314453 C132.53258122 14.15154701 192.01967814 41.08097351 239.71875 83.203125 C240.56308594 83.94820312 241.40742187 84.69328125 242.27734375 85.4609375 C244.7746166 87.6905027 247.24834681 89.94383572 249.71875 92.203125 C250.80585345 93.18504657 251.89310132 94.16680827 252.98046875 95.1484375 C258.26349081 99.94129782 263.42454435 104.69341041 268.00390625 110.1796875 C270.03749837 112.57923355 272.19138092 114.84706051 274.34375 117.140625 C280.98269511 124.43340561 286.85585795 132.28177703 292.71875 140.203125 C293.22164551 140.87585449 293.72454102 141.54858398 294.24267578 142.24169922 C333.70043502 195.26428364 358.62209586 264.12192785 358.921875 330.484375 C358.92888931 331.52811783 358.93590363 332.57186066 358.94313049 333.64723206 C358.96054486 336.99924073 358.96698329 340.35107274 358.96875 343.703125 C358.96976212 345.42086624 358.96976212 345.42086624 358.97079468 347.17330933 C358.95498407 364.04559476 358.55155833 380.53239343 355.71875 397.203125 C355.54714355 398.255 355.37553711 399.306875 355.19873047 400.390625 C344.77032799 463.01695622 317.84090149 522.50405314 275.71875 570.203125 C274.97367188 571.04746094 274.22859375 571.89179687 273.4609375 572.76171875 C271.2313723 575.2589916 268.97803928 577.73272181 266.71875 580.203125 C265.73682843 581.29022845 264.75506673 582.37747632 263.7734375 583.46484375 C258.98057718 588.74786581 254.22846459 593.90891935 248.7421875 598.48828125 C246.34264145 600.52187337 244.07481449 602.67575592 241.78125 604.828125 C234.48846939 611.46707011 226.64009797 617.34023295 218.71875 623.203125 C218.04602051 623.70602051 217.37329102 624.20891602 216.68017578 624.72705078 C163.65759136 664.18481002 94.79994715 689.10647086 28.4375 689.40625 C27.39375717 689.41326431 26.35001434 689.42027863 25.27464294 689.42750549 C21.92263427 689.44491986 18.57080226 689.45135829 15.21875 689.453125 C14.07358917 689.45379974 12.92842834 689.45447449 11.74856567 689.45516968 C-5.12371976 689.43935907 -21.61051843 689.03593333 -38.28125 686.203125 C-39.333125 686.03151855 -40.385 685.85991211 -41.46875 685.68310547 C-104.09508122 675.25470299 -163.58217814 648.32527649 -211.28125 606.203125 C-212.12558594 605.45804688 -212.96992187 604.71296875 -213.83984375 603.9453125 C-216.3371166 601.7157473 -218.81084681 599.46241428 -221.28125 597.203125 C-222.36835345 596.22120343 -223.45560132 595.23944173 -224.54296875 594.2578125 C-229.82599081 589.46495218 -234.98704435 584.71283959 -239.56640625 579.2265625 C-241.59999837 576.82701645 -243.75388092 574.55918949 -245.90625 572.265625 C-252.54519511 564.97284439 -258.41835795 557.12447297 -264.28125 549.203125 C-265.03559326 548.19403076 -265.03559326 548.19403076 -265.80517578 547.16455078 C-305.26293502 494.14196636 -330.18459586 425.28432215 -330.484375 358.921875 C-330.49138931 357.87813217 -330.49840363 356.83438934 -330.50563049 355.75901794 C-330.52304486 352.40700927 -330.52948329 349.05517726 -330.53125 345.703125 C-330.53192474 344.55796417 -330.53259949 343.41280334 -330.53329468 342.23294067 C-330.51748407 325.36065524 -330.11405833 308.87385657 -327.28125 292.203125 C-327.10964355 291.15125 -326.93803711 290.099375 -326.76123047 289.015625 C-316.33282799 226.38929378 -289.40340149 166.90219686 -247.28125 119.203125 C-246.53617188 118.35878906 -245.79109375 117.51445313 -245.0234375 116.64453125 C-242.7938723 114.1472584 -240.54053928 111.67352819 -238.28125 109.203125 C-237.29932843 108.11602155 -236.31756673 107.02877368 -235.3359375 105.94140625 C-230.54307718 100.65838419 -225.79096459 95.49733065 -220.3046875 90.91796875 C-217.90514145 88.88437663 -215.63731449 86.73049408 -213.34375 84.578125 C-206.05096939 77.93917989 -198.20259797 72.06601705 -190.28125 66.203125 C-189.27215576 65.44878174 -189.27215576 65.44878174 -188.24267578 64.67919922 C-135.22009136 25.22143998 -66.36244715 0.29977914 0 0 Z " fill="#FFC107" transform="translate(1652.28125,1321.796875)"/>
</svg>
