<?xml version="1.0" encoding="UTF-8"?>
<svg version="1.1" xmlns="http://www.w3.org/2000/svg" width="648" height="261">
<path d="M0 0 C12.87263906 8.26713103 22.24451608 22.73354823 27 37 C27.14403348 38.33363703 27.24590423 39.67218046 27.31640625 41.01171875 C27.35830078 41.76904297 27.40019531 42.52636719 27.44335938 43.30664062 C27.48267578 44.09232422 27.52199219 44.87800781 27.5625 45.6875 C27.60568359 46.48478516 27.64886719 47.28207031 27.69335938 48.10351562 C27.79927368 50.06881447 27.90012551 52.03438496 28 54 C28.14695312 53.09507813 28.14695312 53.09507813 28.296875 52.171875 C28.97418623 48.55176323 29.63290488 45.602036 31.5625 42.4375 C35.32972301 40.21580438 38.74194262 40.28285349 43 41 C46 42.5 46 42.5 49 45 C49.72316406 45.58265625 50.44632812 46.1653125 51.19140625 46.765625 C57.16894776 51.76824623 62.45714849 57.1160288 64 65 C64.63877195 74.4218863 62.16605923 81.41508831 56.17578125 88.7265625 C52.85318461 92.19828825 49.15876369 95.12746188 45.35546875 98.0546875 C42.81908695 99.95901878 42.81908695 99.95901878 41 103 C40.003306 114.35815869 45.61657712 127.95466278 52.60546875 136.71484375 C54.08771901 138.25722005 54.08771901 138.25722005 57 139 C63.80195744 135.82788213 66.50230423 129.66366719 69.234375 122.98046875 C71.73169715 115.64232286 72.49192297 108.89396511 72.62890625 101.21484375 C73.02631409 97.77203686 73.48273527 96.35097617 76 94 C81.36090226 93.22180451 81.36090226 93.22180451 84 94 C87.77407302 97.22162782 90.17586578 100.61806581 92.5625 104.9375 C92.88984131 105.52233154 93.21718262 106.10716309 93.55444336 106.7097168 C95.72733519 110.61299364 97.83245914 114.55201759 99.9375 118.4921875 C100.45368896 119.45261963 100.96987793 120.41305176 101.50170898 121.40258789 C102.51720075 123.29585339 103.52495784 125.19329481 104.52368164 127.09545898 C108.52626955 134.56853003 113.44160664 143.65392382 121 148 C124.5 148.83333333 124.5 148.83333333 128 148 C131.01966243 145.53007099 132.76446343 142.70660972 134 139 C134.66030421 131.69335506 134.85791753 124.85773106 130 119 C127.24408381 116.51682589 124.41795285 114.22003131 121.4609375 111.98046875 C119 110 119 110 117 107 C116.45017182 100.07216495 116.45017182 100.07216495 118.25 96.5625 C121.73471169 93.45115028 126.35682778 93.66586724 130.83203125 93.71875 C142.00252254 94.71045823 152.94262476 98.13444329 163 103 C163.94488281 103.45246094 164.88976562 103.90492187 165.86328125 104.37109375 C176.29453489 109.6949286 182.98128183 116.650173 189.828125 126.046875 C199.64666704 139.3972667 213.23821249 151.0205197 230.06640625 153.84765625 C239.49369288 154.3372224 251.0097169 153.44019275 259 148 C261.29170408 143.41659185 260.54856099 137.29207649 259.38671875 132.4375 C255.01229843 120.41266177 245.7063219 109.89544772 235.5 102.375 C233 100 233 100 232 96.375 C232 93 232 93 234 90 C247.55785446 85.48071518 265.96641344 93.2902915 278.16992188 99.06787109 C284.74374418 102.41617066 289.8587703 106.78249093 295 112 C296.02611455 112.98441614 297.05488627 113.9660681 298.0859375 114.9453125 C308.78930332 125.22641032 319.31719438 137.65110725 320.17700195 153.20117188 C320.23183495 156.57241826 320.27661152 159.94283692 320.29516602 163.31445312 C320.3066092 164.75726183 320.32693774 166.20003082 320.35668945 167.64257812 C320.72096968 185.33967793 315.56747766 198.60900634 303.3984375 211.56640625 C270.77541105 244.66762039 226.68801524 260.70291769 181.08125305 261.08796692 C161.21900566 261.09969541 141.35532331 259.60989602 121.53300476 258.48045349 C120.28336221 258.40927213 120.28336221 258.40927213 119.00847435 258.33665276 C117.30355954 258.23944791 115.59865569 258.14205087 113.89376259 258.04446602 C92.37077166 256.81545596 70.83708674 255.83731939 49.30041885 254.88314438 C46.33581152 254.75103878 43.37130779 254.61681757 40.40682983 254.48184204 C35.7096798 254.26800733 31.01237211 254.05807157 26.31490707 253.85127449 C24.59376673 253.77503696 22.87267629 253.69766169 21.15164566 253.61898613 C1.02223794 252.70241964 -18.86727161 253.19882703 -38.99087167 254.14571142 C-42.50389931 254.31024443 -46.0171221 254.47051216 -49.53031921 254.63137817 C-55.44506042 254.90281879 -61.35965849 255.17721341 -67.27416992 255.45361328 C-74.00615889 255.76819814 -80.73831517 256.07895821 -87.47058564 256.387456 C-95.45575822 256.75338557 -103.44081047 257.12188123 -111.42578125 257.4921875 C-112.48456085 257.54124831 -112.48456085 257.54124831 -113.56472993 257.59130025 C-129.61418834 258.33566727 -145.65917138 259.12011214 -161.69764328 260.07566643 C-173.48688065 260.77687369 -185.20774272 261.31384338 -197.01733398 260.88842773 C-199.26340351 260.80984436 -201.50889843 260.76242894 -203.75585938 260.71679688 C-243.53860178 259.67567161 -283.96224985 238.89566696 -312 211 C-324.13176193 198.06667523 -328.35794384 183.75522584 -328.375 166.375 C-328.39949219 165.08464844 -328.42398437 163.79429687 -328.44921875 162.46484375 C-328.51073306 142.10360813 -319.63284052 129.11558983 -306 115 C-305.23429687 114.17113281 -304.46859375 113.34226562 -303.6796875 112.48828125 C-289.58883159 97.61460001 -267.67123378 89.56060357 -247.3125 88.625 C-244 89 -244 89 -241.5 90.0625 C-240 92 -240 92 -239.4375 95.375 C-240.24749209 100.59494905 -242.84298122 102.22749327 -246.796875 105.4765625 C-257.07372467 114.15022362 -266.12478187 124.62685687 -267.9375 138.375 C-268.13001523 142.05612448 -268.1041652 144.8437522 -266 148 C-258.97716841 153.5769545 -248.07702679 154.24785457 -239.4140625 153.89453125 C-220.87214291 151.52807004 -206.96318104 138.66836538 -195.9375 124.5625 C-193.62051707 121.52254394 -191.33448964 118.4610348 -189.08984375 115.3671875 C-186.58759114 112.53286024 -183.80171303 110.55373412 -180.625 108.5625 C-180.00923096 108.17489502 -179.39346191 107.78729004 -178.7590332 107.38793945 C-165.50083937 99.25694435 -147.00696209 91.53297717 -131 94 C-128.45121078 95.17244304 -126.93702622 96.06297378 -125 98 C-124.29052607 102.81428741 -124.42382171 106.0920827 -127.0625 110.25 C-129.02618359 112.29712624 -131.10845728 113.7428571 -133.5 115.25 C-138.13200976 118.42247058 -140.27251169 122.74874129 -142 128 C-143.02474665 133.95971078 -142.31499004 139.10695766 -139.2578125 144.35546875 C-137.08776999 147.19269824 -135.47769165 148.19745577 -132 149 C-126.79932943 147.99376028 -123.60760581 144.91587393 -120.5625 140.75 C-114.93413233 132.03428844 -110.05325396 122.8382029 -105.15625 113.69921875 C-104.67317383 112.80444824 -104.19009766 111.90967773 -103.69238281 110.98779297 C-102.75137747 109.24244148 -101.81805313 107.49292047 -100.89355469 105.73876953 C-98.43123235 101.17515578 -96.1135478 97.30009703 -92 94 C-89.01621763 93.16934996 -87.17148127 93.59077661 -84 94 C-81.93339686 95.53473502 -81.12515085 96.445682 -80.55517578 98.97021484 C-80.5189209 99.70965332 -80.48266602 100.4490918 -80.4453125 101.2109375 C-80.39093018 102.03754883 -80.33654785 102.86416016 -80.28051758 103.71582031 C-80.22919678 104.59334961 -80.17787598 105.47087891 -80.125 106.375 C-79.1792465 118.07673147 -76.77468928 127.63508419 -68.84375 136.70703125 C-66.39953059 138.42109189 -64.92495886 138.39907143 -62 138 C-54.39029425 131.36589755 -50.08073252 118.21246754 -48.62890625 108.5234375 C-48.50975079 104.66840779 -48.50742166 102.65677111 -50.875 99.5 C-51.90051315 98.64686656 -52.94562722 97.81719761 -54 97 C-70.36229359 83.16964202 -70.36229359 83.16964202 -71.2734375 72.92578125 C-71.55310463 62.97608529 -70.21385077 58.59378813 -63.6171875 51.40234375 C-54.04390763 41.47185194 -54.04390763 41.47185194 -48.4296875 40.6015625 C-47.58664062 40.60929687 -46.74359375 40.61703125 -45.875 40.625 C-45.02679688 40.61726563 -44.17859375 40.60953125 -43.3046875 40.6015625 C-41 41 -41 41 -39.26953125 42.19921875 C-37.64960405 44.49702318 -37.27900812 46.4243365 -36.8125 49.1875 C-36.57466797 50.53908203 -36.57466797 50.53908203 -36.33203125 51.91796875 C-36.22246094 52.60503906 -36.11289062 53.29210938 -36 54 C-35.22967933 50.65206786 -34.95523156 47.73616362 -35.125 44.3125 C-35.22382617 27.63558447 -23.6420054 15.40753737 -13.015625 3.83984375 C-9.01882642 -0.03778423 -5.38638154 -0.97364483 0 0 Z M-6.91796875 16.765625 C-14.59172384 25.16581129 -21.89796334 34.18275738 -22.23901367 45.90356445 C-22.66101444 59.01923612 -22.66101444 59.01923612 -27 65 C-32.41208029 69.30757411 -37.12158601 70.69858892 -44 70 C-46.875 69 -46.875 69 -49 67 C-50.00878996 64.32221722 -50.48789878 61.83983402 -51 59 C-54.54620664 61.6110451 -57.46753889 63.77533944 -59.25 67.875 C-58.62931673 75.63354083 -52.76080874 80.46585433 -47.1484375 85.2578125 C-45.50708566 86.58879963 -43.8243752 87.86894007 -42.125 89.125 C-37.98855122 92.77480774 -36.30381176 97.77492136 -35.796875 103.15625 C-35.49151189 118.42440571 -41.36784704 135.43709668 -51.5625 146.875 C-56.54066125 151.21493545 -60.54664622 151.44634147 -67.03125 151.3046875 C-73.888249 150.60094287 -78.00464617 146.63883772 -82.296875 141.4765625 C-86.91610776 134.75960477 -90.15536816 126.9319169 -92 119 C-94.09006694 121.67395625 -95.80916417 124.33897736 -97.3828125 127.34375 C-113.09490922 156.90847269 -113.09490922 156.90847269 -124.90234375 160.59375 C-131.54960744 161.88111578 -138.28414187 161.86913685 -144.21875 158.37890625 C-150.97282567 153.15042223 -153.58226349 146.22287178 -155 138 C-156.17246102 128.49003839 -153.80280189 118.60367144 -148 111 C-148 110.34 -148 109.68 -148 109 C-154.8224879 110.36166079 -160.77379611 112.67068998 -166.875 115.9375 C-167.5047876 116.27330078 -168.1345752 116.60910156 -168.78344727 116.95507812 C-174.91085199 120.32918889 -179.09197377 123.79549142 -183.125 129.5 C-194.76309705 145.32626796 -210.95746696 162.57714103 -231.41796875 165.82421875 C-245.58543174 166.78872077 -264.49878484 167.75664881 -276 158 C-279.8571334 152.48568503 -280.65439655 147.29112717 -280.5 140.6875 C-280.48718994 139.85154297 -280.47437988 139.01558594 -280.46118164 138.15429688 C-280.08016246 126.49533614 -275.4012839 118.52632013 -269 109 C-268.67 108.34 -268.34 107.68 -268 107 C-279.01106216 108.764979 -287.29098661 115.3670624 -295 123 C-295.78375 123.73476562 -296.5675 124.46953125 -297.375 125.2265625 C-308.41534943 135.78203172 -315.90945283 147.61507209 -316.29272461 163.1796875 C-316.40906249 176.82999917 -313.75129547 187.23753725 -305 198 C-304.17435547 199.08667969 -304.17435547 199.08667969 -303.33203125 200.1953125 C-283.69747128 224.38092942 -243.92567386 244.08723032 -213.47460938 247.58325195 C-205.89211793 248.35477211 -198.30175594 248.34538656 -190.6875 248.3125 C-189.80899384 248.31100952 -188.93048767 248.30951904 -188.02536011 248.3079834 C-172.8189105 248.2628259 -157.6980841 247.52677106 -142.52636719 246.55566406 C-120.89028371 245.17262786 -99.24614817 244.07623954 -77.58883667 243.08483887 C-73.73303602 242.90806529 -69.87754749 242.72606185 -66.02224731 242.53869629 C-17.66866569 240.19745782 30.26854271 241.1991949 78.58713442 243.61574918 C85.8682363 243.97930727 93.15006263 244.32731028 100.43192112 244.67531955 C106.73730792 244.97722547 113.04249464 245.28327645 119.34765625 245.58984375 C120.66065264 245.65361647 121.97364902 245.71738918 123.32643318 245.78309441 C127.05245025 245.96511948 130.77831975 246.14989539 134.50415039 246.33569336 C136.12098221 246.41445709 136.12098221 246.41445709 137.77047729 246.49481201 C144.2268934 246.82039102 150.66569699 247.26095163 157.10868263 247.79041862 C161.29950947 248.09419685 165.475454 248.16197258 169.67578125 248.16796875 C170.529478 248.17129715 171.38317474 248.17462555 172.26274109 248.17805481 C174.04812084 248.18305936 175.83350973 248.18546518 177.61889648 248.18530273 C180.29752546 248.18748778 182.97574033 248.20571 185.65429688 248.22460938 C198.96227815 248.26932443 212.73332716 248.12988342 225.4375 243.6875 C226.1579248 243.4409668 226.87834961 243.19443359 227.62060547 242.94042969 C255.82318747 232.67315741 290.8782975 213.57295305 305.0703125 185.9140625 C310.30619135 174.27312796 309.72856857 157.63149523 305.35546875 145.85546875 C302.87970453 140.63995392 299.8210264 136.30554434 296 132 C295.41524902 131.33887207 294.83049805 130.67774414 294.22802734 129.99658203 C284.99489462 119.75919996 276.03163976 111.84783572 263 107 C262.34 107 261.68 107 261 107 C262.85984339 110.88876345 265.14397743 114.44749414 267.46484375 118.07421875 C271.36543345 125.50816706 272.5036342 132.280067 272.4375 140.625 C272.45748047 141.52734375 272.47746094 142.4296875 272.49804688 143.359375 C272.49361742 149.43658554 271.6076338 153.06659265 268 158 C258.54386539 166.62947892 242.28277284 166.66164877 230.15625 166.27734375 C212.02135674 165.29476523 196.57569881 154.53422099 184.73046875 141.4609375 C180.5210372 136.67270911 176.50401125 131.80779357 172.875 126.5625 C165.66828509 116.82201212 151.7448982 110.92392618 140 109 C140.42152344 109.89203125 140.84304688 110.7840625 141.27734375 111.703125 C141.82519531 112.87359375 142.37304688 114.0440625 142.9375 115.25 C143.75541016 116.99023438 143.75541016 116.99023438 144.58984375 118.765625 C148.30216888 127.28032086 148.31213788 137.13827367 145.375 145.9375 C142.7615635 152.16389783 139.59809341 156.42076675 133.8125 159.9375 C126.80261545 161.89107438 120.54712615 162.0568184 113.8125 159.0625 C102.63284988 152.6716134 97.04721516 140.87615545 91 130 C90.66097656 129.3910791 90.32195312 128.7821582 89.97265625 128.15478516 C88.28836446 125.1172942 86.62962964 122.06714846 85 119 C84.67 119 84.34 119 84 119 C83.78085937 119.82242188 83.56171875 120.64484375 83.3359375 121.4921875 C80.02630619 133.14316601 75.37342604 143.08438264 65 150 C59.01039198 151.99653601 52.27852945 152.07712301 46.5625 149.375 C35.91111404 139.50298375 29.57974259 124.65724163 28.546875 110.1796875 C28.49229384 108.57864017 28.45543392 106.97687703 28.4375 105.375 C28.41562622 104.25641602 28.41562622 104.25641602 28.39331055 103.11523438 C28.48969984 97.9604517 29.82955722 95.19784273 33 91 C33 90.34 33 89.68 33 89 C33.56847656 88.73445313 34.13695312 88.46890625 34.72265625 88.1953125 C41.61234095 84.57911435 48.1566666 79.43981019 51 72 C51.25443897 67.16565952 49.99759203 64.67702986 47 61.0625 C45.45656859 59.32772151 45.45656859 59.32772151 44 58 C43.67 58 43.34 58 43 58 C42.87044922 58.92232422 42.87044922 58.92232422 42.73828125 59.86328125 C41.59861182 66.41899441 41.59861182 66.41899441 38.875 69.0625 C33.40519368 70.84613249 28.96942045 70.69244515 23.75 68.4375 C19.04852389 65.84198961 17.11343669 62.33283733 15.41796875 57.2578125 C14.93657821 54.65740377 14.87456409 52.10686927 14.8125 49.4675293 C14.38259008 35.07394357 7.89559238 26.70011956 -1.6484375 16.18359375 C-3.94994545 14.16811135 -4.75300337 14.77262225 -6.91796875 16.765625 Z " fill="#FFC107" transform="translate(328,0)"/>
</svg>
