<?xml version="1.0" encoding="UTF-8"?>
<svg version="1.1" xmlns="http://www.w3.org/2000/svg" width="3333" height="3333">
<path d="M0 0 C1.77759688 -0.00111828 3.55519352 -0.00267437 5.33278968 -0.0046259 C10.22547142 -0.00872627 15.11813373 -0.00660481 20.01081546 -0.00348004 C25.35053699 -0.00117628 30.69025525 -0.00468518 36.02997613 -0.00744686 C45.42724251 -0.01150197 54.82450336 -0.01182588 64.2217703 -0.00974091 C78.28993966 -0.00663673 92.35810392 -0.0092765 106.42627291 -0.01303962 C130.40107636 -0.01928054 154.375878 -0.02075205 178.35068214 -0.01962215 C202.65376551 -0.01849037 226.95684736 -0.0195213 251.25993049 -0.02319461 C252.80925225 -0.0234266 254.35857401 -0.02365858 255.90789577 -0.02389053 C262.15473928 -0.02483006 268.40158278 -0.02578636 274.64842629 -0.02676172 C292.25808906 -0.02950718 309.86775187 -0.03188656 327.47741473 -0.03401369 C328.28439767 -0.03411124 329.09138061 -0.03420879 329.92281758 -0.03430929 C375.82700336 -0.03981566 421.73118922 -0.04011893 467.63537526 -0.04053015 C474.65286997 -0.0405934 481.67036467 -0.04065993 488.68785938 -0.04073071 C490.44672581 -0.0407484 492.20559225 -0.04076577 493.96445868 -0.04078283 C533.43149993 -0.04117054 572.898541 -0.04334887 612.36558216 -0.04591308 C621.17277257 -0.04648464 629.97996298 -0.04703861 638.78715339 -0.04759372 C640.09849369 -0.0476764 640.09849369 -0.0476764 641.43632573 -0.04776075 C646.74302994 -0.04809525 652.04973415 -0.04842902 657.35643836 -0.04876231 C660.01480229 -0.0489294 662.67316621 -0.0490969 665.33153014 -0.04926445 C706.66507146 -0.05186638 747.99861279 -0.05409666 789.33215415 -0.05594665 C790.23276956 -0.05598702 791.13338496 -0.05602739 792.06129174 -0.05606898 C849.45535335 -0.05863227 906.84941485 -0.05953147 964.24347651 -0.05926865 C967.06589972 -0.05925589 969.88832292 -0.05924393 972.71074612 -0.05923224 C992.53959136 -0.0591499 1012.36843661 -0.05904719 1032.19728185 -0.05893936 C1037.88268497 -0.05890859 1043.56808808 -0.05887852 1049.2534912 -0.05884854 C1053.99586046 -0.05882345 1058.73822972 -0.05879766 1063.48059898 -0.05877043 C1153.05459766 -0.05825899 1242.62859543 -0.05967715 1332.20259368 -0.06911784 C1333.61718616 -0.06926688 1333.61718616 -0.06926688 1335.06035626 -0.06941893 C1364.52612406 -0.07253029 1393.99189183 -0.07589678 1423.4576596 -0.07931072 C1453.69172497 -0.08281212 1483.92579033 -0.08628258 1514.15985572 -0.08957511 C1515.55623392 -0.0897274 1515.55623392 -0.0897274 1516.98082178 -0.08988277 C1575.27911032 -0.09623163 1633.57739861 -0.10015373 1691.87568748 -0.1014331 C1693.22622469 -0.10146314 1693.22622469 -0.10146314 1694.60404548 -0.10149379 C1734.14495837 -0.1023691 1773.68587124 -0.10268889 1813.22678413 -0.1024029 C1829.13397588 -0.10228862 1845.04116763 -0.10223255 1860.94835937 -0.10219958 C1863.58585423 -0.10219318 1866.22334908 -0.1021841 1868.86084394 -0.10217443 C1909.206338 -0.10203793 1949.55183124 -0.10338437 1989.89732492 -0.10921961 C1990.76745392 -0.10934528 1991.63758292 -0.10947095 1992.53407947 -0.10960043 C2006.53125043 -0.11162947 2020.52842137 -0.11377349 2034.52559231 -0.11592724 C2074.25947736 -0.12203612 2113.9933613 -0.12708013 2153.72724688 -0.12495607 C2154.53344898 -0.12491336 2155.33965108 -0.12487064 2156.17028354 -0.12482664 C2173.75884878 -0.12387329 2191.34741391 -0.12235747 2208.93597905 -0.12028992 C2215.95074056 -0.1194736 2222.96550207 -0.11872997 2229.98026359 -0.11800891 C2231.12805059 -0.11788793 2231.12805059 -0.11788793 2232.2990252 -0.11776451 C2256.5685043 -0.11524083 2280.83797727 -0.11885816 2305.1074553 -0.12602673 C2329.66548476 -0.1332538 2354.22350422 -0.13358072 2378.78153361 -0.12548796 C2392.75476476 -0.12109726 2406.72796963 -0.12220033 2420.70119862 -0.13135475 C2429.97586213 -0.13688629 2439.25050597 -0.13519251 2448.52516796 -0.12757196 C2453.78619036 -0.1234528 2459.04716095 -0.12244128 2464.30818023 -0.13032265 C2469.08766777 -0.13742413 2473.86705989 -0.13521593 2478.6465426 -0.12578896 C2480.35470137 -0.1240086 2482.06286789 -0.12551527 2483.77101919 -0.13087509 C2498.0228148 -0.17255144 2512.34230783 0.48920195 2526.13930023 4.37649983 C2526.92723968 4.5926595 2527.71517913 4.80881917 2528.52699554 5.03152913 C2564.58476724 15.24789778 2595.06235975 39.12205598 2613.42055023 71.81912678 C2626.55940679 96.12150496 2630.68030987 121.28583465 2630.64080006 148.6121996 C2630.64191834 150.38979648 2630.64347443 152.16739313 2630.64542596 153.94498929 C2630.64952633 158.83767102 2630.64740487 163.73033333 2630.64428009 168.62301506 C2630.64197634 173.96273659 2630.64548524 179.30245486 2630.64824691 184.64217573 C2630.65230203 194.03944212 2630.65262594 203.43670297 2630.65054097 212.83396991 C2630.64743679 226.90213926 2630.65007656 240.97030353 2630.65383968 255.03847251 C2630.6600806 279.01327596 2630.66155211 302.9880776 2630.66042221 326.96288174 C2630.65929043 351.26596511 2630.66032136 375.56904696 2630.66399467 399.8721301 C2630.66422666 401.42145185 2630.66445863 402.97077361 2630.66469059 404.52009537 C2630.66563012 410.76693888 2630.66658642 417.01378239 2630.66756178 423.26062589 C2630.67030724 440.87028866 2630.67268662 458.47995147 2630.67481375 476.08961433 C2630.6749113 476.89659727 2630.67500885 477.70358022 2630.67510935 478.53501719 C2630.68061572 524.43920296 2630.68091899 570.34338882 2630.68133021 616.24757487 C2630.68139346 623.26506957 2630.68145998 630.28256428 2630.68153077 637.30005898 C2630.68154846 639.05892542 2630.68156583 640.81779185 2630.68158289 642.57665829 C2630.6819706 682.04369953 2630.68414893 721.5107406 2630.68671314 760.97778176 C2630.6872847 769.78497217 2630.68783867 778.59216258 2630.68839378 787.39935299 C2630.6884489 788.27357986 2630.68850402 789.14780674 2630.68856081 790.04852533 C2630.68889531 795.35522954 2630.68922908 800.66193375 2630.68956237 805.96863796 C2630.68972945 808.62700189 2630.68989696 811.28536582 2630.69006451 813.94372974 C2630.69266644 855.27727106 2630.69489672 896.6108124 2630.69674671 937.94435376 C2630.69678708 938.84496916 2630.69682745 939.74558457 2630.69686904 940.67349134 C2630.69943232 998.06755295 2630.70033152 1055.46161446 2630.70006871 1112.85567612 C2630.70005595 1115.67809932 2630.70004399 1118.50052252 2630.7000323 1121.32294572 C2630.69994996 1141.15179097 2630.69984725 1160.98063621 2630.69973942 1180.80948146 C2630.69970865 1186.49488457 2630.69967858 1192.18028769 2630.6996486 1197.8656908 C2630.69962351 1202.60806006 2630.69959772 1207.35042932 2630.69957049 1212.09279858 C2630.69905905 1301.66679726 2630.70047721 1391.24079504 2630.7099179 1480.81479329 C2630.71006694 1482.22938576 2630.71006694 1482.22938576 2630.71021899 1483.67255587 C2630.71333035 1513.13832367 2630.71669684 1542.60409144 2630.72011077 1572.06985921 C2630.72361218 1602.30392457 2630.72708264 1632.53798994 2630.73037517 1662.77205533 C2630.7304767 1663.70297413 2630.73057822 1664.63389293 2630.73068283 1665.59302138 C2630.73703169 1723.89130993 2630.74095379 1782.18959821 2630.74223316 1840.48788708 C2630.74225318 1841.38824523 2630.74227321 1842.28860337 2630.74229385 1843.21624509 C2630.74316916 1882.75715797 2630.74348895 1922.29807084 2630.74320296 1961.83898374 C2630.74308868 1977.74617548 2630.74303261 1993.65336723 2630.74299964 2009.56055898 C2630.74299324 2012.19805383 2630.74298416 2014.83554869 2630.74297449 2017.47304354 C2630.74283799 2057.8185376 2630.74418443 2098.16403084 2630.75001967 2138.50952452 C2630.75020818 2139.81471803 2630.75020818 2139.81471803 2630.75040049 2141.14627907 C2630.75242953 2155.14345003 2630.75457354 2169.14062097 2630.7567273 2183.13779191 C2630.76283618 2222.87167696 2630.76788019 2262.6055609 2630.76575613 2302.33944649 C2630.76571342 2303.14564858 2630.7656707 2303.95185068 2630.7656267 2304.78248315 C2630.76467334 2322.37104838 2630.76315753 2339.95961352 2630.76108998 2357.54817865 C2630.76027366 2364.56294016 2630.75953003 2371.57770168 2630.75880897 2378.5924632 C2630.75872832 2379.35765453 2630.75864767 2380.12284586 2630.75856457 2380.9112248 C2630.75604089 2405.18070391 2630.75965822 2429.45017687 2630.76682679 2453.7196549 C2630.77405386 2478.27768437 2630.77438078 2502.83570382 2630.76628802 2527.39373321 C2630.76189732 2541.36696437 2630.76300039 2555.34016924 2630.77215481 2569.31339823 C2630.77768635 2578.58806173 2630.77599256 2587.86270558 2630.76837202 2597.13736756 C2630.76425286 2602.39838996 2630.76324134 2607.65936055 2630.77112271 2612.92037983 C2630.77822419 2617.69986738 2630.77601599 2622.4792595 2630.76658902 2627.2587422 C2630.76480866 2628.96690098 2630.76631533 2630.67506749 2630.77167515 2632.38321879 C2630.8133515 2646.6350144 2630.15159811 2660.95450743 2626.26430023 2674.75149983 C2626.04814056 2675.53943928 2625.83198089 2676.32737874 2625.60927093 2677.13919514 C2615.39290228 2713.19696685 2591.51874407 2743.67455936 2558.82167327 2762.03274983 C2534.5192951 2775.1716064 2509.35496541 2779.29250948 2482.02860045 2779.25299966 C2480.25100358 2779.25411794 2478.47340693 2779.25567404 2476.69581077 2779.25762557 C2471.80312904 2779.26172593 2466.91046672 2779.25960448 2462.017785 2779.2564797 C2456.67806347 2779.25417594 2451.3383452 2779.25768484 2445.99862432 2779.26044652 C2436.60135794 2779.26450164 2427.20409709 2779.26482554 2417.80683015 2779.26274057 C2403.7386608 2779.25963639 2389.67049653 2779.26227617 2375.60232755 2779.26603928 C2351.6275241 2779.27228021 2327.65272246 2779.27375171 2303.67791831 2779.27262181 C2279.37483494 2779.27149004 2255.0717531 2779.27252097 2230.76866996 2779.27619427 C2229.2193482 2779.27642627 2227.67002645 2779.27665824 2226.12070469 2779.27689019 C2219.87386118 2779.27782972 2213.62701767 2779.27878602 2207.38017417 2779.27976138 C2189.7705114 2779.28250684 2172.16084858 2779.28488622 2154.55118573 2779.28701335 C2153.74420278 2779.2871109 2152.93721984 2779.28720845 2152.10578287 2779.28730896 C2106.2015971 2779.29281533 2060.29741124 2779.29311859 2014.39322519 2779.29352982 C2007.37573049 2779.29359306 2000.35823578 2779.29365959 1993.34074108 2779.29373037 C1991.58187464 2779.29374806 1989.82300821 2779.29376544 1988.06414177 2779.29378249 C1948.59710052 2779.29417021 1909.13005945 2779.29634853 1869.66301829 2779.29891275 C1860.85582789 2779.29948431 1852.04863748 2779.30003828 1843.24144707 2779.30059338 C1841.93010676 2779.30067606 1841.93010676 2779.30067606 1840.59227473 2779.30076041 C1835.28557052 2779.30109492 1829.97886631 2779.30142868 1824.67216209 2779.30176198 C1822.01379817 2779.30192906 1819.35543424 2779.30209657 1816.69707032 2779.30226412 C1775.363529 2779.30486604 1734.02998766 2779.30709633 1692.6964463 2779.30894631 C1691.34552319 2779.30900687 1691.34552319 2779.30900687 1689.96730871 2779.30906865 C1632.57324711 2779.31163193 1575.1791856 2779.31253113 1517.78512394 2779.31226831 C1514.96270074 2779.31225556 1512.14027754 2779.3122436 1509.31785434 2779.3122319 C1489.48900909 2779.31214956 1469.66016385 2779.31204685 1449.8313186 2779.31193902 C1444.14591549 2779.31190825 1438.46051237 2779.31187819 1432.77510926 2779.31184821 C1428.03274 2779.31182311 1423.29037074 2779.31179732 1418.54800148 2779.3117701 C1328.9740028 2779.31125866 1239.40000502 2779.31267682 1149.82600677 2779.32211751 C1148.41141429 2779.32226655 1148.41141429 2779.32226655 1146.96824419 2779.32241859 C1117.50247639 2779.32552995 1088.03670862 2779.32889644 1058.57094085 2779.33231038 C1028.33687549 2779.33581178 998.10281012 2779.33928224 967.86874473 2779.34257478 C966.93782593 2779.3426763 966.00690713 2779.34277783 965.04777867 2779.34288243 C906.74949013 2779.3492313 848.45120185 2779.35315339 790.15291297 2779.35443276 C788.80237576 2779.3544628 788.80237576 2779.3544628 787.42455497 2779.35449345 C747.88364209 2779.35536876 708.34272921 2779.35568855 668.80181632 2779.35540257 C652.89462458 2779.35528828 636.98743283 2779.35523222 621.08024108 2779.35519925 C618.44274623 2779.35519284 615.80525137 2779.35518377 613.16775652 2779.3551741 C572.82226246 2779.35503759 532.47676922 2779.35638403 492.13127553 2779.36221927 C490.82608203 2779.36240778 490.82608203 2779.36240778 489.49452098 2779.3626001 C475.49735003 2779.36462913 461.50017909 2779.36677315 447.50300815 2779.36892691 C407.7691231 2779.37503579 368.03523916 2779.3800798 328.30135357 2779.37795573 C327.49515147 2779.37791302 326.68894938 2779.37787031 325.85831691 2779.3778263 C308.26975168 2779.37687295 290.68118654 2779.37535714 273.09262141 2779.37328959 C266.0778599 2779.37247326 259.06309838 2779.37172963 252.04833686 2779.37100857 C251.28314553 2779.37092792 250.5179542 2779.37084727 249.72957525 2779.37076418 C225.46009615 2779.36824049 201.19062319 2779.37185782 176.92114515 2779.37902639 C152.36311569 2779.38625347 127.80509624 2779.38658038 103.24706684 2779.37848763 C89.27383569 2779.37409692 75.30063082 2779.37519999 61.32740183 2779.38435441 C52.05273833 2779.38988595 42.77809448 2779.38819217 33.5034325 2779.38057163 C28.2424101 2779.37645247 22.98143951 2779.37544094 17.72042023 2779.38332232 C12.94093268 2779.39042379 8.16154056 2779.3882156 3.38205786 2779.37878863 C1.67389908 2779.37700826 -0.03426744 2779.37851493 -1.74241873 2779.38387476 C-15.99421435 2779.42555111 -30.31370737 2778.76379771 -44.11069977 2774.87649983 C-44.89863923 2774.66034016 -45.68657868 2774.4441805 -46.49839509 2774.22147053 C-82.55616679 2764.00510189 -113.0337593 2740.13094368 -131.39194977 2707.43387288 C-144.53080634 2683.1314947 -148.65170942 2657.96716501 -148.6121996 2630.64080006 C-148.61331788 2628.86320318 -148.61487398 2627.08560654 -148.61682551 2625.30801038 C-148.62092587 2620.41532864 -148.61880442 2615.52266633 -148.61567964 2610.6299846 C-148.61337588 2605.29026307 -148.61688478 2599.9505448 -148.61964646 2594.61082393 C-148.62370158 2585.21355755 -148.62402548 2575.8162967 -148.62194052 2566.41902976 C-148.61883633 2552.3508604 -148.62147611 2538.28269614 -148.62523922 2524.21452715 C-148.63148015 2500.2397237 -148.63295165 2476.26492206 -148.63182175 2452.29011792 C-148.63068998 2427.98703455 -148.63172091 2403.6839527 -148.63539422 2379.38086957 C-148.63562621 2377.83154781 -148.63585818 2376.28222605 -148.63609013 2374.73290429 C-148.63702967 2368.48606078 -148.63798596 2362.23921728 -148.63896132 2355.99237377 C-148.64170678 2338.382711 -148.64408616 2320.77304819 -148.64621329 2303.16338533 C-148.64631084 2302.35640239 -148.64640839 2301.54941945 -148.6465089 2300.71798247 C-148.65201527 2254.8137967 -148.65231853 2208.90961084 -148.65272976 2163.0054248 C-148.65279301 2155.98793009 -148.65285953 2148.97043539 -148.65293031 2141.95294068 C-148.652948 2140.19407425 -148.65296538 2138.43520781 -148.65298243 2136.67634138 C-148.65337015 2097.20930013 -148.65554848 2057.74225906 -148.65811269 2018.2752179 C-148.65868425 2009.46802749 -148.65923822 2000.66083708 -148.65979332 1991.85364667 C-148.65984844 1990.9794198 -148.65990356 1990.10519293 -148.65996036 1989.20447433 C-148.66029486 1983.89777012 -148.66062862 1978.59106591 -148.66096192 1973.2843617 C-148.661129 1970.62599777 -148.66129651 1967.96763385 -148.66146406 1965.30926992 C-148.66406599 1923.9757286 -148.66629627 1882.64218726 -148.66814625 1841.3086459 C-148.66818662 1840.4080305 -148.66822699 1839.5074151 -148.66826859 1838.57950832 C-148.67083187 1781.18544671 -148.67173107 1723.7913852 -148.67146825 1666.39732354 C-148.6714555 1663.57490034 -148.67144354 1660.75247714 -148.67143184 1657.93005394 C-148.6713495 1638.1012087 -148.67124679 1618.27236345 -148.67113896 1598.44351821 C-148.67110819 1592.75811509 -148.67107813 1587.07271198 -148.67104815 1581.38730886 C-148.67102305 1576.6449396 -148.67099727 1571.90257034 -148.67097004 1567.16020108 C-148.6704586 1477.5862024 -148.67187676 1388.01220463 -148.68131745 1298.43820637 C-148.68141681 1297.49514472 -148.68151617 1296.55208307 -148.68161854 1295.5804438 C-148.68472989 1266.114676 -148.68809638 1236.64890822 -148.69151032 1207.18314046 C-148.69501172 1176.94907509 -148.69848218 1146.71500972 -148.70177472 1116.48094434 C-148.70187624 1115.55002554 -148.70197777 1114.61910674 -148.70208237 1113.65997828 C-148.70843124 1055.36168974 -148.71235334 997.06340145 -148.7136327 938.76511258 C-148.71365273 937.86475444 -148.71367276 936.9643963 -148.71369339 936.03675457 C-148.7145687 896.49584169 -148.71488849 856.95492882 -148.71460251 817.41401593 C-148.71448822 801.50682418 -148.71443216 785.59963243 -148.71439919 769.69244068 C-148.71439279 767.05494583 -148.71438371 764.41745098 -148.71437404 761.77995612 C-148.71423753 721.43446206 -148.71558397 681.08896882 -148.72141922 640.74347514 C-148.72154489 639.87334614 -148.72167056 639.00321714 -148.72180004 638.10672059 C-148.72382907 624.10954963 -148.72597309 610.11237869 -148.72812685 596.11520775 C-148.73423573 556.3813227 -148.73927974 516.64743876 -148.73715568 476.91355318 C-148.73709161 475.70425003 -148.73709161 475.70425003 -148.73702624 474.47051652 C-148.73607289 456.88195128 -148.73455708 439.29338615 -148.73248953 421.70482101 C-148.7316732 414.6900595 -148.73092958 407.67529799 -148.73020852 400.66053647 C-148.73012786 399.89534514 -148.73004721 399.13015381 -148.72996412 398.34177486 C-148.72744043 374.07229576 -148.73105776 349.80282279 -148.73822634 325.53334476 C-148.74545341 300.9753153 -148.74578032 276.41729584 -148.73768757 251.85926645 C-148.73329686 237.8860353 -148.73439993 223.91283043 -148.74355435 209.93960144 C-148.74908589 200.66493793 -148.74739211 191.39029409 -148.73977157 182.1156321 C-148.73565241 176.8546097 -148.73464088 171.59363911 -148.74252226 166.33261983 C-148.74962373 161.55313228 -148.74741554 156.77374017 -148.73798857 151.99425746 C-148.7362082 150.28609869 -148.73771487 148.57793217 -148.7430747 146.86978087 C-148.78475105 132.61798526 -148.12299765 118.29849223 -144.23569977 104.50149983 C-144.0195401 103.71356038 -143.80338044 102.92562093 -143.58067048 102.11380452 C-133.36430183 66.05603282 -109.49014362 35.57844031 -76.79307282 17.22024983 C-52.49069465 4.08139327 -27.32636495 -0.03950981 0 0 Z M1313.51430023 462.12649983 C1313.35978747 509.30257183 1313.35978747 509.30257183 1313.20961273 556.47865742 C1313.20704758 557.29773588 1313.20448244 558.11681434 1313.20183957 558.96071335 C1312.87942923 661.94398506 1312.57664446 764.92729909 1312.05278372 1013.96230361 C1312.01943198 1030.64076075 1311.98580411 1047.31921731 1311.95207489 1063.99767369 C1311.84687872 1116.0330455 1311.74250323 1168.06841895 1311.63930023 1220.10379475 C1311.63672236 1221.40354193 1311.6341445 1222.70328911 1311.63148852 1224.04242256 C1311.57070763 1254.69912909 1311.51061524 1285.35583684 1311.45180023 1316.01254719 C1311.45051088 1316.68451361 1311.44922153 1317.35648002 1311.44789311 1318.04880904 C1311.43355894 1325.5195517 1311.41923593 1332.99029437 1311.40491664 1340.46103705 C1311.40298342 1341.46962789 1311.40298342 1341.46962789 1311.40101115 1342.49859432 C1311.39450711 1345.89190745 1311.38800384 1349.28522059 1311.38150167 1352.67853373 C1311.29546618 1397.57260026 1311.20632243 1442.46665981 1311.11365101 1487.36071323 C1311.10059972 1493.68496098 1311.08758801 1500.00920881 1311.07460296 1506.3334567 C1311.07205058 1507.576311 1311.06949821 1508.81916531 1311.06686848 1510.09968186 C1311.02634964 1529.87788195 1310.98911063 1549.65608684 1310.95325637 1569.43429588 C1310.91746164 1589.14896801 1310.87837939 1608.86363141 1310.83594882 1628.5782904 C1310.81100504 1640.21596687 1310.78857256 1651.85364156 1310.76991072 1663.49132984 C1310.75715219 1671.28786861 1310.74096412 1679.08439573 1310.72216877 1686.88092226 C1310.71162036 1691.29523089 1310.70238276 1695.7095291 1310.69741428 1700.12384783 C1310.67581239 1718.32948656 1310.50480312 1736.52479166 1310.08058441 1754.72588128 C1310.06233126 1755.56598397 1310.04407811 1756.40608666 1310.02527183 1757.27164701 C1309.73363646 1770.37787382 1308.88076162 1783.20876956 1306.51430023 1796.12649983 C1306.34414398 1797.07766682 1306.17398773 1798.02883382 1305.99867523 1799.00882405 C1297.44105392 1845.77775263 1278.58852962 1891.0316308 1248.51430023 1928.12649983 C1247.77695648 1929.05591389 1247.03961273 1929.98532796 1246.27992523 1930.94290608 C1233.10614776 1947.36341239 1218.23533024 1963.29149937 1201.51430023 1976.12649983 C1200.25184076 1977.12817114 1198.99018196 1978.13085205 1197.72914398 1979.13431233 C1135.43973427 2028.2710368 1055.07638787 2048.40402329 976.71278656 2039.53714436 C927.23544927 2033.30252028 879.37322533 2015.36026735 839.51430023 1985.12649983 C838.93486663 1984.68982991 838.35543304 1984.25315999 837.75844085 1983.80325764 C829.25159755 1977.36050664 821.19801488 1970.54188769 813.51430023 1963.12649983 C812.79016937 1962.42960042 812.06603851 1961.732701 811.31996429 1961.01468343 C801.78467412 1951.78893003 792.59122371 1942.55870885 784.76039398 1931.82571858 C783.46109678 1930.05394968 782.13129817 1928.30841853 780.79555023 1926.56399983 C736.44576072 1868.13800669 716.86380495 1792.21436753 725.70180023 1719.50149983 C726.2291982 1715.69467435 726.85088409 1711.91175905 727.51430023 1708.12649983 C727.68058929 1707.12667073 727.84687835 1706.12684163 728.01820648 1705.09671468 C732.86851076 1676.44848224 742.01383772 1648.71607823 755.54066741 1622.99271077 C756.48351221 1621.18551277 757.39620376 1619.3658822 758.30336273 1617.54056233 C768.2546408 1597.82581677 781.53672721 1579.58483718 796.46742523 1563.35696858 C798.3610121 1561.29353709 800.19256186 1559.19075402 802.01430023 1557.06399983 C808.30774231 1549.85488373 815.18706516 1543.27154521 822.51430023 1537.12649983 C823.29208831 1536.46206868 823.29208831 1536.46206868 824.08558929 1535.78421468 C840.48305115 1521.81753234 858.35955365 1509.96996522 877.51430023 1500.12649983 C878.37716644 1499.68209553 879.24003265 1499.23769124 880.12904632 1498.77982014 C905.4195032 1485.9025485 931.88502383 1477.10247032 959.76430023 1471.87649983 C960.56569427 1471.72527669 961.36708831 1471.57405354 962.19276702 1471.41824788 C977.4685435 1468.73570944 992.68844886 1467.81279298 1008.17787445 1467.92068928 C1010.90860017 1467.93913017 1013.63898688 1467.94119656 1016.36976898 1467.94095296 C1018.15492809 1467.94586499 1019.94008496 1467.95169193 1021.72523773 1467.95853108 C1022.51723571 1467.95964391 1023.3092337 1467.96075673 1024.12523162 1467.96190327 C1030.99328423 1468.01818277 1037.61148243 1468.59551385 1044.51430023 1469.12649983 C1044.51430023 1377.71649983 1044.51430023 1286.30649983 1044.51430023 1192.12649983 C957.45100469 1185.16143619 868.47243922 1200.54902924 755.51430023 1251.12649983 C753.9461557 1251.91371419 753.9461557 1251.91371419 752.34633148 1252.71683186 C717.96050622 1270.05833881 685.04336466 1291.36320212 655.51430023 1316.12649983 C653.68155198 1317.60639138 651.84820558 1319.08554243 650.01430023 1320.56399983 C645.30252093 1324.4154257 640.78465445 1328.44284446 636.31508148 1332.57181233 C634.17664347 1334.52235411 632.01608869 1336.42164228 629.82387054 1338.30984944 C625.63956027 1341.96765158 621.68313557 1345.81279503 617.76039398 1349.74759358 C617.05584579 1350.45118504 616.3512976 1351.1547765 615.62539947 1351.87968892 C614.14776656 1353.35664631 612.67137566 1354.83484725 611.19618499 1356.31424397 C608.95763541 1358.55815068 606.7137955 1360.79666687 604.46937835 1363.03470296 C603.02439619 1364.48034601 601.57972431 1365.92629929 600.13539398 1367.37259358 C599.47478469 1368.03117863 598.81417541 1368.68976369 598.13354766 1369.36830586 C593.72997076 1373.79376519 589.5747686 1378.38531793 585.51430023 1383.12649983 C584.82529884 1383.92411481 584.82529884 1383.92411481 584.12237823 1384.73784322 C577.49491459 1392.42809501 571.10220251 1400.28188712 564.90590179 1408.32278889 C563.99212596 1409.50717062 563.07490949 1410.68890735 562.15394866 1411.86771077 C547.09694684 1431.16521204 533.72546888 1451.93070953 521.51430023 1473.12649983 C521.10872894 1473.82339925 520.70315765 1474.52029866 520.28529632 1475.23831624 C475.26000529 1552.88903236 451.32528473 1640.88417648 464.84288299 1897.384175 C478.51162358 1948.71648778 499.23083075 1997.55393755 526.51430023 2043.12649983 C527.26743499 2044.39252034 527.26743499 2044.39252034 528.0357846 2045.68411702 C546.7337181 2077.07266704 568.97890364 2106.45585606 593.84633148 2133.21243733 C595.82741932 2135.37626095 597.74703672 2137.56045576 599.65492523 2139.78665608 C603.89255967 2144.64674517 608.4350567 2149.19771694 613.00233734 2153.74490803 C614.44954408 2155.18675204 615.89132049 2156.63387099 617.3326596 2158.08157796 C622.02056333 2162.77279547 626.7669572 2167.34146287 631.80458343 2171.65750569 C634.14285163 2173.66655321 636.38484732 2175.77427686 638.63930023 2177.87649983 C643.84362201 2182.62203842 649.28417274 2186.97289391 654.85414398 2191.27884358 C657.30980563 2193.17815977 659.73674605 2195.10663113 662.14320648 2197.06790608 C671.30640985 2204.53223104 680.76499084 2211.44771076 690.51430023 2218.12649983 C691.1324057 2218.55140706 691.75051116 2218.97631428 692.3873471 2219.41409749 C709.68949624 2231.2635335 727.60420601 2241.98242006 746.11049163 2251.83646077 C748.15801554 2252.93529444 750.18932375 2254.05583019 752.21351898 2255.19681233 C810.96616449 2287.81442506 879.21987826 2305.95295635 945.51430023 2314.12649983 C946.53668792 2314.25345235 946.53668792 2314.25345235 947.57972991 2314.38296956 C989.68449744 2319.52972604 1033.41804305 2319.21069542 1075.51430023 2314.12649983 C1076.57539001 2313.99921498 1076.57539001 2313.99921498 1077.65791595 2313.86935872 C1140.02894946 2306.29094471 1199.85182326 2288.13583982 1256.51430023 2261.12649983 C1257.43517425 2260.68870198 1258.35604827 2260.25090413 1259.30482757 2259.79983968 C1308.6894735 2236.15443266 1353.9062371 2203.8549635 1393.92201507 2166.60110921 C1395.61678183 2165.031592 1397.32460848 2163.47712954 1399.03383148 2161.92337483 C1408.02666617 2153.70203382 1416.44873197 2145.04807727 1424.70424163 2136.08939046 C1426.34627661 2134.30871049 1427.99672756 2132.53640902 1429.65101898 2130.76712483 C1435.55056459 2124.43318282 1441.10684026 2117.8835903 1446.51430023 2111.12649983 C1447.43670398 2109.99566027 1448.35992218 2108.86548469 1449.28383148 2107.73587483 C1473.35619398 2078.17416609 1493.75641631 2045.81604061 1511.51430023 2012.12649983 C1512.24882415 2010.73552083 1512.24882415 2010.73552083 1512.99818695 2009.31644124 C1531.43885947 1974.11925915 1545.52668622 1936.56383489 1555.51430023 1898.12649983 C1555.68081085 1897.48579549 1555.84732147 1896.84509114 1556.01887786 1896.18497151 C1566.64184727 1855.11217844 1573.68821873 1812.39455795 1573.65296543 1769.89620751 C1573.65542086 1768.52631984 1573.65830706 1767.15643288 1573.66157821 1765.78654692 C1573.6692669 1762.05293247 1573.67091624 1758.31933707 1573.67150563 1754.58571568 C1573.67324786 1750.5123379 1573.68074042 1746.43896985 1573.68748218 1742.36559784 C1573.69849897 1735.23697162 1573.70589515 1728.10834889 1573.71088111 1720.979716 C1573.71831158 1710.37980437 1573.73140028 1699.77990492 1573.74562687 1689.1800005 C1573.76940247 1671.34673111 1573.78862129 1653.51345955 1573.80522621 1635.68018216 C1573.82167765 1618.02778833 1573.84016477 1600.37539856 1573.86135948 1582.72300977 C1573.86333589 1581.07549691 1573.86333589 1581.07549691 1573.86535223 1579.39470097 C1573.87205448 1573.8165797 1573.87879301 1568.23845847 1573.88554548 1562.66033726 C1573.93328473 1523.16981401 1573.97647658 1483.67928697 1574.01698577 1444.18875569 C1574.05634573 1405.82872685 1574.0977707 1367.46870114 1574.14198577 1329.10867757 C1574.1433483 1327.92586412 1574.14471083 1326.74305067 1574.14611465 1325.5243944 C1574.15980025 1313.64589251 1574.17352776 1301.76739067 1574.18728599 1289.88888887 C1574.21531113 1265.69188329 1574.24305649 1241.49487739 1574.27063262 1217.29787129 C1574.27253492 1215.62913124 1574.27253492 1215.62913124 1574.27447565 1213.92667927 C1574.35910475 1139.65995789 1574.43721247 1065.39322937 1574.51430023 991.12649983 C1574.85392288 991.6090775 1575.19354553 992.09165517 1575.54345977 992.5888564 C1577.10464776 994.80632983 1578.66688854 997.02305958 1580.22914398 999.23978108 C1580.76325897 999.99875691 1581.29737396 1000.75773274 1581.84767425 1001.53970784 C1586.28312469 1007.83075398 1590.82568223 1014.02076931 1595.51430023 1020.12649983 C1595.9247055 1020.6630721 1596.33511077 1021.19964436 1596.75795257 1021.75247639 C1603.99363918 1031.18796401 1611.61301552 1040.24246828 1619.51430023 1049.12649983 C1619.97320648 1049.64470296 1620.43211273 1050.16290608 1620.90492523 1050.69681233 C1627.91131386 1058.56869603 1635.32673594 1066.04019552 1642.76430023 1073.50149983 C1643.47222213 1074.21343999 1643.47222213 1074.21343999 1644.19444549 1074.93976277 C1649.79158709 1080.56100008 1655.47490177 1085.98425246 1661.51430023 1091.12649983 C1662.59753584 1092.07564792 1663.67961714 1093.02611542 1664.76039398 1093.97806233 C1673.70391268 1101.77929279 1682.99637054 1109.04142315 1692.51430023 1116.12649983 C1693.22570159 1116.65888264 1693.93710296 1117.19126546 1694.67006195 1117.73978108 C1713.36148498 1131.67886 1733.11108085 1143.86568474 1753.51430023 1155.12649983 C1754.6664804 1155.76748616 1754.6664804 1155.76748616 1755.84193695 1156.42142171 C1814.78530916 1189.04192815 1880.79626668 1206.53088207 1947.51430023 1213.12649983 C1949.1003305 1213.28662556 1949.1003305 1213.28662556 1950.71840179 1213.44998616 C1961.82785444 1214.40937676 1972.97327798 1214.31257808 1984.11586273 1214.31180257 C1987.61077968 1214.31398205 1991.1053766 1214.3321742 1994.60023773 1214.35110921 C1996.88669501 1214.35404588 1999.17315375 1214.35602884 2001.45961273 1214.35696858 C2002.47177856 1214.3641541 2003.48394439 1214.37133961 2004.52678192 1214.37874287 C2014.70833773 1214.34786272 2024.21289173 1213.15664068 2034.51430023 1212.12649983 C2034.51430023 1110.48649983 2034.51430023 1008.84649983 2034.51430023 904.12649983 C2026.26430023 903.13649983 2018.01430023 902.14649983 2009.51430023 901.12649983 C2003.44058283 900.25560834 1997.38055768 899.367267 1991.32680023 898.37649983 C1990.5515802 898.25022206 1989.77636016 898.12394429 1988.97764862 897.99383992 C1904.39676998 884.09881584 1822.11538751 847.66546546 1756.51430023 792.12649983 C1755.47178885 791.25746128 1754.42879494 790.38900135 1753.38539398 789.52103108 C1742.9905377 780.84090165 1733.0013986 771.79721947 1723.51430023 762.12649983 C1720.71514015 759.31288626 1717.89728387 756.51994617 1715.06117523 753.74368733 C1708.48421475 747.2779086 1702.18463267 740.82989944 1696.47133148 733.57962483 C1694.64845143 731.29465743 1692.74460761 729.14990784 1690.76430023 727.00149983 C1650.00999824 681.55721865 1620.59787355 623.72327309 1601.51430023 566.12649983 C1601.15642425 565.05271077 1600.79854827 563.97892171 1600.42982757 562.87259358 C1589.57565324 529.95509758 1583.7695963 496.28592428 1578.51430023 462.12649983 C1491.06430023 462.12649983 1403.61430023 462.12649983 1313.51430023 462.12649983 Z " fill="#FFC107" transform="translate(425.4856997728348,276.8735001683235)"/>
</svg>
